<?xml version="1.0" encoding="UTF-8"?>
<!DOCTYPE svg PUBLIC "-//W3C//DTD SVG 1.1//EN" "http://www.w3.org/Graphics/SVG/1.1/DTD/svg11.dtd">
<svg xmlns="http://www.w3.org/2000/svg" version="1.1" width="556px" height="373px" style="shape-rendering:geometricPrecision; text-rendering:geometricPrecision; image-rendering:optimizeQuality; fill-rule:evenodd; clip-rule:evenodd" xmlns:xlink="http://www.w3.org/1999/xlink">
<g><path style="opacity:0.964" fill="#fefffe" d="M 482.5,-0.5 C 488.167,-0.5 493.833,-0.5 499.5,-0.5C 506.404,1.44284 513.07,4.27617 519.5,8C 520.022,8.5613 520.355,9.22797 520.5,10C 507.345,33.9775 493.679,57.6441 479.5,81C 478.668,81.6877 478.002,81.521 477.5,80.5C 471.007,67.5117 464.007,54.845 456.5,42.5C 437.825,75.8478 419.658,109.514 402,143.5C 401.282,144.451 400.449,144.617 399.5,144C 396.874,139.916 394.374,135.75 392,131.5C 391,130.167 390,130.167 389,131.5C 370.397,163.096 351.397,194.43 332,225.5C 331.5,205.169 331.333,184.836 331.5,164.5C 363.341,162.326 380.674,145.326 383.5,113.5C 381.996,89.9902 370.33,73.8235 348.5,65C 342.951,63.3233 337.285,62.4899 331.5,62.5C 331.5,42.5 331.5,22.5 331.5,2.5C 374.193,3.08875 406.693,21.4221 429,57.5C 437.498,42.4992 446.498,27.8325 456,13.5C 463.572,6.29915 472.405,1.63248 482.5,-0.5 Z"/></g>
<g><path style="opacity:0.977" fill="#fefffe" d="M 31.5,1.5 C 63.8692,4.04524 83.7025,21.0452 91,52.5C 91.4999,64.1619 91.6665,75.8286 91.5,87.5C 97.6324,86.1831 102.799,83.1831 107,78.5C 112,69.1667 117,59.8333 122,50.5C 154.054,8.36894 195.887,-6.13106 247.5,7C 296.223,25.2584 321.889,60.4251 324.5,112.5C 324.573,133.883 318.906,153.55 307.5,171.5C 300.044,170.292 293.044,167.792 286.5,164C 283.333,162.167 280.833,159.667 279,156.5C 268.865,165.769 256.865,170.102 243,169.5C 238.818,169.023 234.651,168.857 230.5,169C 251.063,180.187 273.063,185.853 296.5,186C 288.67,195.496 279.337,203.163 268.5,209C 245.671,210.005 228.837,200.505 218,180.5C 210.718,196.059 198.551,202.559 181.5,200C 167.206,197.408 152.872,195.074 138.5,193C 132.756,187.927 127.756,182.26 123.5,176C 132.035,173.694 140.701,173.027 149.5,174C 162.66,177.457 175.994,179.957 189.5,181.5C 195.65,181.086 201.65,179.92 207.5,178C 191.334,178.965 179.334,172.465 171.5,158.5C 168.115,162.707 163.782,165.54 158.5,167C 149.929,168.916 141.262,170.249 132.5,171C 128.989,171.67 125.656,172.837 122.5,174.5C 110.721,156.997 104.221,137.664 103,116.5C 99.5056,113.02 95.8389,113.02 92,116.5C 91.6667,151.5 91.3333,186.5 91,221.5C 90.2496,222.126 89.4162,222.626 88.5,223C 68.1694,223.5 47.8361,223.667 27.5,223.5C 27.3333,150.499 27.5,77.4992 28,4.5C 28.985,3.18586 30.1516,2.18586 31.5,1.5 Z M 208.5,61.5 C 234.045,60.9066 251.879,72.2399 262,95.5C 269.072,123.843 259.905,145.01 234.5,159C 212.898,167.151 193.731,163.317 177,147.5C 159,124.167 159,100.833 177,77.5C 185.875,68.813 196.375,63.4797 208.5,61.5 Z"/></g>
<g><path style="opacity:0.934" fill="#fefffe" d="M 528.5,13.5 C 532.114,15.3068 535.78,17.1401 539.5,19C 542.245,24.0622 541.745,28.8956 538,33.5C 506.081,88.3367 474.414,143.337 443,198.5C 433.872,213.795 421.372,225.462 405.5,233.5C 404.479,232.998 404.312,232.332 405,231.5C 446.444,158.941 487.61,86.2743 528.5,13.5 Z"/></g>
<g><path style="opacity:0.918" fill="#fefffe" d="M 454.5,62.5 C 455.376,62.3691 456.043,62.7025 456.5,63.5C 459.634,68.9358 462.634,74.4358 465.5,80C 459.862,92.7753 454.362,105.609 449,118.5C 448.577,119.956 447.744,120.456 446.5,120C 445.37,117.572 443.87,115.405 442,113.5C 437.017,118.065 431.517,121.065 425.5,122.5C 435.723,102.722 445.389,82.7224 454.5,62.5 Z"/></g>
<g><path style="opacity:0.908" fill="#fefffe" d="M 208.5,201.5 C 210.199,201.34 211.866,201.506 213.5,202C 223.592,209.421 234.925,213.587 247.5,214.5C 219.612,226.296 191.612,226.462 163.5,215C 156.011,211.759 149.011,207.759 142.5,203C 153.19,205.223 163.857,207.89 174.5,211C 187.433,213.103 198.766,209.937 208.5,201.5 Z"/></g>
<g><path style="opacity:0.862" fill="#fefffe" d="M 283.5,255.5 C 284.552,255.351 285.552,255.517 286.5,256C 291.088,261.621 296.755,262.954 303.5,260C 305.833,258.5 308.167,257 310.5,255.5C 312.833,257.167 314.833,259.167 316.5,261.5C 304.542,272.964 292.375,273.297 280,262.5C 279.626,261.584 279.126,260.75 278.5,260C 280.24,258.483 281.906,256.983 283.5,255.5 Z"/></g>
<g><path style="opacity:0.926" fill="#fefffe" d="M 0.5,272.5 C 3.5,272.5 6.5,272.5 9.5,272.5C 9.5,283.5 9.5,294.5 9.5,305.5C 12.1667,305.5 14.8333,305.5 17.5,305.5C 20.2673,285.733 31.6006,274.733 51.5,272.5C 68.7708,273.938 79.9375,282.938 85,299.5C 89.7377,320.659 82.571,336.159 63.5,346C 38.0597,351.08 22.3931,340.913 16.5,315.5C 14.2573,314.526 11.924,314.192 9.5,314.5C 9.5,325.5 9.5,336.5 9.5,347.5C 6.5,347.5 3.5,347.5 0.5,347.5C 0.5,322.5 0.5,297.5 0.5,272.5 Z M 46.5,283.5 C 64.6511,283.313 74.6511,292.313 76.5,310.5C 74.8245,328.351 65.1579,337.184 47.5,337C 37.0089,334.509 30.5089,328.009 28,317.5C 25.6128,301.26 31.7795,289.927 46.5,283.5 Z"/></g>
<g><path style="opacity:0.971" fill="#fefffe" d="M 159.5,272.5 C 162.5,272.5 165.5,272.5 168.5,272.5C 168.5,279.833 168.5,287.167 168.5,294.5C 176.167,294.5 183.833,294.5 191.5,294.5C 191.5,287.5 191.5,280.5 191.5,273.5C 194.5,273.5 197.5,273.5 200.5,273.5C 200.5,298.167 200.5,322.833 200.5,347.5C 197.5,347.5 194.5,347.5 191.5,347.5C 191.5,332.833 191.5,318.167 191.5,303.5C 183.833,303.5 176.167,303.5 168.5,303.5C 168.5,318.167 168.5,332.833 168.5,347.5C 165.5,347.5 162.5,347.5 159.5,347.5C 159.5,322.5 159.5,297.5 159.5,272.5 Z"/></g>
<g><path style="opacity:0.919" fill="#fefffe" d="M 96.5,273.5 C 98.9099,273.921 100.743,275.254 102,277.5C 107.667,285.5 113.333,293.5 119,301.5C 119.5,292.173 119.666,282.839 119.5,273.5C 122.5,273.5 125.5,273.5 128.5,273.5C 128.334,282.839 128.5,292.173 129,301.5C 135.5,292.333 142,283.167 148.5,274C 149.5,273.333 150.5,273.333 151.5,274C 153.208,276.043 155.208,277.71 157.5,279C 150.411,289.178 143.078,299.178 135.5,309C 142.637,320.302 149.97,331.469 157.5,342.5C 154.956,346.115 151.623,347.448 147.5,346.5C 141.333,336.833 135.167,327.167 129,317.5C 128.5,327.494 128.334,337.494 128.5,347.5C 125.5,347.5 122.5,347.5 119.5,347.5C 119.666,337.494 119.5,327.494 119,317.5C 112.5,327.333 106,337.167 99.5,347C 95.7466,347.123 92.7466,345.623 90.5,342.5C 97.8817,331.569 104.882,320.403 111.5,309C 104.383,299.272 97.3828,289.438 90.5,279.5C 92.215,277.118 94.215,275.118 96.5,273.5 Z"/></g>
<g><path style="opacity:0.937" fill="#fefffe" d="M 207.5,273.5 C 210.5,273.5 213.5,273.5 216.5,273.5C 216.168,282.525 216.502,291.525 217.5,300.5C 229.97,295.326 240.804,297.66 250,307.5C 254.28,314.563 255.613,322.23 254,330.5C 248.056,344.481 237.39,350.481 222,348.5C 217.171,348.042 212.338,347.709 207.5,347.5C 207.5,322.833 207.5,298.167 207.5,273.5 Z M 225.5,308.5 C 238.308,307.131 244.808,312.798 245,325.5C 244.004,331.159 240.838,334.993 235.5,337C 229.258,338.37 222.925,338.87 216.5,338.5C 216.334,330.826 216.5,323.159 217,315.5C 219.416,312.577 222.25,310.243 225.5,308.5 Z"/></g>
<g><path style="opacity:0.973" fill="#fefffe" d="M 258.5,273.5 C 261.5,273.5 264.5,273.5 267.5,273.5C 267.5,298.167 267.5,322.833 267.5,347.5C 264.5,347.5 261.5,347.5 258.5,347.5C 258.5,322.833 258.5,298.167 258.5,273.5 Z"/></g>
<g><path style="opacity:0.937" fill="#fefffe" d="M 274.5,273.5 C 277.5,273.5 280.5,273.5 283.5,273.5C 283.333,290.837 283.5,308.17 284,325.5C 292.5,308.5 301,291.5 309.5,274.5C 312.768,273.513 316.102,273.18 319.5,273.5C 319.825,290.744 319.492,307.91 318.5,325C 321.98,328.839 321.98,332.506 318.5,336C 319.46,339.73 319.793,343.563 319.5,347.5C 316.5,347.5 313.5,347.5 310.5,347.5C 310.207,343.563 310.54,339.73 311.5,336C 308.648,333.847 308.148,331.347 310,328.5C 310.667,317.5 310.667,306.5 310,295.5C 301.5,312.5 293,329.5 284.5,346.5C 281.232,347.487 277.898,347.82 274.5,347.5C 274.5,322.833 274.5,298.167 274.5,273.5 Z"/></g>
<g><path style="opacity:0.932" fill="#fefffe" d="M 363.5,273.5 C 366.5,273.5 369.5,273.5 372.5,273.5C 372.196,283.878 372.696,294.211 374,304.5C 378.495,314.333 385.662,316.833 395.5,312C 398.667,308.845 400.501,305.012 401,300.5C 401.5,291.506 401.666,282.506 401.5,273.5C 404.5,273.5 407.5,273.5 410.5,273.5C 410.952,293.887 410.452,314.221 409,334.5C 402.964,346.93 393.131,351.43 379.5,348C 371.441,346.14 367.441,341.306 367.5,333.5C 369.429,332.62 371.263,331.62 373,330.5C 375.461,332.961 377.961,335.461 380.5,338C 395.085,341.249 401.752,335.416 400.5,320.5C 393.791,323.383 386.791,324.216 379.5,323C 370.673,319.56 365.507,313.06 364,303.5C 363.5,293.506 363.334,283.506 363.5,273.5 Z"/></g>
<g><path style="opacity:0.945" fill="#fefffe" d="M 417.5,273.5 C 425.253,273.104 432.92,273.604 440.5,275C 455.398,284.789 458.565,297.623 450,313.5C 443.907,320.922 436.074,323.922 426.5,322.5C 426.5,330.833 426.5,339.167 426.5,347.5C 423.5,347.5 420.5,347.5 417.5,347.5C 417.5,322.833 417.5,298.167 417.5,273.5 Z M 427.5,282.5 C 437.783,282.794 443.783,287.961 445.5,298C 443.611,308.507 437.444,313.34 427,312.5C 426.193,302.423 426.36,292.423 427.5,282.5 Z"/></g>
<g><path style="opacity:0.908" fill="#fefffe" d="M 485.5,320.5 C 484.87,325.429 482.87,329.763 479.5,333.5C 476.768,330.384 474.268,327.051 472,323.5C 470.333,331.167 468.667,338.833 467,346.5C 463.943,347.451 460.777,347.784 457.5,347.5C 462.01,323.119 466.843,298.785 472,274.5C 476.737,273.531 481.57,273.197 486.5,273.5C 491.646,298.064 496.979,322.564 502.5,347C 498.848,347.499 495.182,347.665 491.5,347.5C 489.991,338.273 487.991,329.273 485.5,320.5 Z M 485.5,320.5 C 483.26,317.024 481.26,313.357 479.5,309.5C 476.806,313.554 474.639,317.888 473,322.5C 474.502,311.474 476.502,300.474 479,289.5C 481.997,299.651 484.164,309.985 485.5,320.5 Z"/></g>
<g><path style="opacity:0.917" fill="#fefffe" d="M 521.5,273.5 C 526.167,273.5 530.833,273.5 535.5,273.5C 540.646,298.064 545.979,322.564 551.5,347C 547.848,347.499 544.182,347.665 540.5,347.5C 536.779,328.063 532.613,308.729 528,289.5C 524.128,308.528 520.128,327.528 516,346.5C 512.943,347.451 509.777,347.784 506.5,347.5C 510.992,322.704 515.992,298.037 521.5,273.5 Z"/></g>
<g><path style="opacity:0.835" fill="#fefffe" d="M 386.5,280.5 C 389.719,284.435 392.052,288.935 393.5,294C 392.116,297.876 390.116,301.376 387.5,304.5C 385.004,301.159 382.671,297.659 380.5,294C 382.793,289.618 384.793,285.118 386.5,280.5 Z"/></g>
<g><path style="opacity:0.875" fill="#fefffe" d="M 51.5,292.5 C 54.9968,298.16 57.9968,304.16 60.5,310.5C 57.9179,315.333 55.0845,320 52,324.5C 48.3077,320.148 45.4744,315.315 43.5,310C 45.7633,303.974 48.43,298.141 51.5,292.5 Z"/></g>
</svg>
