<?xml version="1.0" encoding="UTF-8"?>
<!DOCTYPE svg PUBLIC "-//W3C//DTD SVG 1.1//EN" "http://www.w3.org/Graphics/SVG/1.1/DTD/svg11.dtd">
<svg xmlns="http://www.w3.org/2000/svg" version="1.1" width="946px" height="284px" style="shape-rendering:geometricPrecision; text-rendering:geometricPrecision; image-rendering:optimizeQuality; fill-rule:evenodd; clip-rule:evenodd" xmlns:xlink="http://www.w3.org/1999/xlink">
<g><path style="opacity:0.897" fill="#fefffe" d="M 890.5,0.5 C 894.131,1.60756 897.131,3.77423 899.5,7C 904.348,9.78852 909.348,10.1218 914.5,8C 918.899,6.09358 922.899,3.59358 926.5,0.5C 929.5,2.83333 932.167,5.5 934.5,8.5C 921.931,21.5943 907.598,24.0943 891.5,16C 888.269,13.2727 885.603,10.106 883.5,6.5C 885.878,4.448 888.211,2.448 890.5,0.5 Z"/></g>
<g><path style="opacity:0.947" fill="#fefffe" d="M 512.5,24.5 C 516.5,24.5 520.5,24.5 524.5,24.5C 524.5,38.8333 524.5,53.1667 524.5,67.5C 527.898,67.8204 531.232,67.487 534.5,66.5C 542.475,35.0152 562.475,21.8486 594.5,27C 619.734,38.2884 630.234,57.7884 626,85.5C 620.133,109.35 604.967,122.35 580.5,124.5C 557.8,122.306 542.967,110.306 536,88.5C 535.304,85.5219 534.804,82.5219 534.5,79.5C 531.167,79.5 527.833,79.5 524.5,79.5C 524.5,94.1667 524.5,108.833 524.5,123.5C 520.5,123.5 516.5,123.5 512.5,123.5C 512.5,90.5 512.5,57.5 512.5,24.5 Z M 575.5,38.5 C 596.134,38.2983 608.634,48.2983 613,68.5C 614.948,89.8576 605.781,103.691 585.5,110C 563.968,110.481 551.468,99.9812 548,78.5C 547.264,58.1097 556.431,44.7763 575.5,38.5 Z"/></g>
<g><path style="opacity:0.978" fill="#fefffe" d="M 725.5,24.5 C 729.5,24.5 733.5,24.5 737.5,24.5C 737.5,33.8333 737.5,43.1667 737.5,52.5C 747.833,52.5 758.167,52.5 768.5,52.5C 768.5,43.5 768.5,34.5 768.5,25.5C 772.5,25.5 776.5,25.5 780.5,25.5C 780.5,58.1667 780.5,90.8333 780.5,123.5C 776.5,123.5 772.5,123.5 768.5,123.5C 768.5,103.833 768.5,84.1667 768.5,64.5C 758.167,64.5 747.833,64.5 737.5,64.5C 737.5,84.1667 737.5,103.833 737.5,123.5C 733.5,123.5 729.5,123.5 725.5,123.5C 725.5,90.5 725.5,57.5 725.5,24.5 Z"/></g>
<g><path style="opacity:0.938" fill="#fefffe" d="M 641.5,25.5 C 642.675,25.281 643.675,25.6143 644.5,26.5C 653.333,38.8333 662.167,51.1667 671,63.5C 671.5,50.8377 671.667,38.1711 671.5,25.5C 675.5,25.5 679.5,25.5 683.5,25.5C 683.333,37.8378 683.5,50.1712 684,62.5C 692.833,50.3333 701.667,38.1667 710.5,26C 715.014,26.9472 718.68,29.4472 721.5,33.5C 712.026,46.8071 702.36,59.9738 692.5,73C 702.124,87.0805 711.624,101.247 721,115.5C 721.667,116.5 721.667,117.5 721,118.5C 718.417,119.874 715.917,121.374 713.5,123C 712.056,123.781 710.723,123.614 709.5,122.5C 701,109.5 692.5,96.5 684,83.5C 683.5,96.8292 683.333,110.163 683.5,123.5C 679.5,123.5 675.5,123.5 671.5,123.5C 671.667,110.163 671.5,96.8292 671,83.5C 662.043,96.5805 653.209,109.747 644.5,123C 639.956,122.565 635.956,120.732 632.5,117.5C 642.379,102.791 652.045,87.9579 661.5,73C 652.376,59.7051 643.042,46.5384 633.5,33.5C 635.882,30.4517 638.548,27.7851 641.5,25.5 Z"/></g>
<g><path style="opacity:0.953" fill="#fefffe" d="M 789.5,25.5 C 793.5,25.5 797.5,25.5 801.5,25.5C 801.333,37.8378 801.5,50.1712 802,62.5C 819.192,54.2051 834.192,57.2051 847,71.5C 857.875,91.9472 853.709,108.447 834.5,121C 830.012,122.811 825.346,123.811 820.5,124C 810.159,124.466 799.825,124.3 789.5,123.5C 789.5,90.8333 789.5,58.1667 789.5,25.5 Z M 818.5,70.5 C 831.458,71.2913 838.791,78.1246 840.5,91C 839.723,100.228 835.056,106.561 826.5,110C 818.236,111.37 809.903,111.87 801.5,111.5C 801.334,101.161 801.5,90.828 802,80.5C 806.427,75.2113 811.927,71.8779 818.5,70.5 Z"/></g>
<g><path style="opacity:0.979" fill="#fefffe" d="M 857.5,25.5 C 861.5,25.5 865.5,25.5 869.5,25.5C 869.5,58.1667 869.5,90.8333 869.5,123.5C 865.5,123.5 861.5,123.5 857.5,123.5C 857.5,90.8333 857.5,58.1667 857.5,25.5 Z"/></g>
<g><path style="opacity:0.945" fill="#fefffe" d="M 877.5,25.5 C 881.5,25.5 885.5,25.5 889.5,25.5C 889.333,48.8357 889.5,72.169 890,95.5C 901.833,72.5 913.667,49.5 925.5,26.5C 929.783,25.5078 934.116,25.1744 938.5,25.5C 938.823,48.5453 938.49,71.5453 937.5,94.5C 941.393,99.241 941.393,103.908 937.5,108.5C 938.448,113.435 938.781,118.435 938.5,123.5C 934.5,123.5 930.5,123.5 926.5,123.5C 926.195,118.238 926.529,113.072 927.5,108C 923.695,103.714 923.695,99.3803 927.5,95C 926.676,81.2415 926.176,67.4082 926,53.5C 914.167,76.5 902.333,99.5 890.5,122.5C 886.217,123.492 881.884,123.826 877.5,123.5C 877.5,90.8333 877.5,58.1667 877.5,25.5 Z M 933.5,85.5 C 932.833,85.5 932.167,85.5 931.5,85.5C 932.167,82.8333 932.833,82.8333 933.5,85.5 Z M 931.5,115.5 C 932.167,115.5 932.833,115.5 933.5,115.5C 932.833,118.167 932.167,118.167 931.5,115.5 Z"/></g>
<g><path style="opacity:0.968" fill="#fefffe" d="M 417.5,29.5 C 430.806,27.9922 442.806,31.1589 453.5,39C 440.711,61.4144 427.544,83.581 414,105.5C 407.588,93.0071 400.921,80.6738 394,68.5C 376.912,99.6742 360.079,131.008 343.5,162.5C 342.833,163.833 342.167,163.833 341.5,162.5C 338.863,158.032 336.03,153.698 333,149.5C 315.584,178.667 297.918,207.667 280,236.5C 279.5,218.17 279.333,199.836 279.5,181.5C 308.177,178.823 323.843,163.157 326.5,134.5C 325.437,113.206 315.103,98.3728 295.5,90C 290.311,88.2023 284.978,87.369 279.5,87.5C 279.167,68.8214 279.5,50.1548 280.5,31.5C 318.734,33.4505 348.068,50.4505 368.5,82.5C 375.468,70.3692 382.634,58.3692 390,46.5C 397.292,37.6134 406.458,31.9467 417.5,29.5 Z"/></g>
<g><path style="opacity:0.976" fill="#fefffe" d="M -0.5,234.5 C -0.5,167.833 -0.5,101.167 -0.5,34.5C 1.03127,32.3199 3.19793,31.3199 6,31.5C 31.9843,34.1645 48.9843,47.8312 57,72.5C 58.0653,85.1343 58.8986,97.801 59.5,110.5C 64.7405,108.628 69.2405,105.628 73,101.5C 97.1749,47.1596 138.675,24.993 197.5,35C 245.016,50.6833 270.016,83.5166 272.5,133.5C 272.734,153.247 267.401,171.247 256.5,187.5C 246.464,185.815 237.797,181.482 230.5,174.5C 217.068,184.41 202.068,187.91 185.5,185C 204.591,195.023 224.924,200.523 246.5,201.5C 239.151,210.018 230.484,216.851 220.5,222C 199.657,222.831 184.491,213.998 175,195.5C 166.603,211.539 153.436,217.372 135.5,213C 123.898,210.613 112.231,208.613 100.5,207C 96.3114,202.312 92.3114,197.479 88.5,192.5C 88.7093,191.914 89.0426,191.414 89.5,191C 97.4452,189.512 105.445,189.178 113.5,190C 124.813,193.196 136.313,195.363 148,196.5C 153.269,196.313 158.436,195.48 163.5,194C 148.889,193.953 138.389,187.453 132,174.5C 128.822,179.509 124.322,182.676 118.5,184C 108.06,185.263 97.7265,187.096 87.5,189.5C 80.5925,181.019 75.7592,171.352 73,160.5C 71.3363,152.517 69.8363,144.517 68.5,136.5C 67.5617,135.447 66.395,134.78 65,134.5C 62.9534,135.609 60.7867,136.276 58.5,136.5C 58.6666,168.835 58.5,201.168 58,233.5C 38.5761,234.493 19.0761,234.826 -0.5,234.5 Z M 165.5,86.5 C 192.731,86.3518 209.897,99.3518 217,125.5C 219.095,153.162 206.928,170.995 180.5,179C 151.052,181.865 132.552,169.032 125,140.5C 122.972,120.059 130.472,104.225 147.5,93C 153.299,89.9183 159.299,87.7516 165.5,86.5 Z"/></g>
<g><path style="opacity:0.928" fill="#fefffe" d="M 460.5,42.5 C 464.189,44.0969 467.689,46.0969 471,48.5C 472.967,51.9983 472.633,55.3316 470,58.5C 438.171,114.162 405.838,169.495 373,224.5C 365.92,233.357 357.254,240.024 347,244.5C 349.06,238.705 351.727,233.039 355,227.5C 390.179,165.806 425.345,104.139 460.5,42.5 Z"/></g>
<g><path style="opacity:0.909" fill="#fefffe" d="M 580.5,50.5 C 585.065,57.8022 588.732,65.6356 591.5,74C 588.83,80.5052 585.497,86.6718 581.5,92.5C 576.885,86.7793 572.885,80.6127 569.5,74C 573.315,66.2052 576.982,58.3718 580.5,50.5 Z"/></g>
<g><path style="opacity:0.909" fill="#fefffe" d="M 392.5,87.5 C 396.183,92.3467 399.516,97.5133 402.5,103C 397.12,115.643 391.454,128.143 385.5,140.5C 383.768,138.717 382.268,136.717 381,134.5C 376.083,137.375 371.249,140.375 366.5,143.5C 373.949,124.583 382.616,105.917 392.5,87.5 Z"/></g>
<g><path style="opacity:0.955" fill="#fefffe" d="M 590.5,150.5 C 601.864,149.646 612.864,151.146 623.5,155C 640.792,168.04 644.292,184.207 634,203.5C 625.852,213.49 615.352,217.823 602.5,216.5C 602.5,227.5 602.5,238.5 602.5,249.5C 598.5,249.5 594.5,249.5 590.5,249.5C 590.5,216.5 590.5,183.5 590.5,150.5 Z M 603.5,163.5 C 621.099,164.255 628.599,173.255 626,190.5C 621.308,200.759 613.474,205.092 602.5,203.5C 602.186,190.087 602.519,176.754 603.5,163.5 Z"/></g>
<g><path style="opacity:0.938" fill="#fefffe" d="M 518.5,151.5 C 522.5,151.5 526.5,151.5 530.5,151.5C 530.073,165.226 530.573,178.893 532,192.5C 538.416,205.86 548.249,209.027 561.5,202C 566.341,196.814 568.841,190.647 569,183.5C 569.5,172.839 569.667,162.172 569.5,151.5C 573.5,151.5 577.5,151.5 581.5,151.5C 581.953,176.877 581.453,202.21 580,227.5C 573.749,246.718 560.582,254.218 540.5,250C 531.64,247.14 525.307,241.473 521.5,233C 524.292,230.098 527.625,227.931 531.5,226.5C 538.783,238.656 548.783,241.489 561.5,235C 567.469,228.623 569.802,221.123 568.5,212.5C 565.543,214.812 562.209,216.312 558.5,217C 537.629,220.831 524.463,212.664 519,192.5C 518.5,178.837 518.333,165.171 518.5,151.5 Z"/></g>
<g><path style="opacity:0.936" fill="#fefffe" d="M 663.5,151.5 C 669.833,151.5 676.167,151.5 682.5,151.5C 689.167,184.167 695.833,216.833 702.5,249.5C 697.678,250.065 693.178,249.399 689,247.5C 683.667,222.167 678.333,196.833 673,171.5C 666.879,196.991 661.213,222.657 656,248.5C 651.934,249.464 647.767,249.797 643.5,249.5C 649.783,216.752 656.45,184.086 663.5,151.5 Z"/></g>
<g><path style="opacity:0.936" fill="#fefffe" d="M 729.5,151.5 C 735.833,151.5 742.167,151.5 748.5,151.5C 755.167,184.167 761.833,216.833 768.5,249.5C 763.678,250.065 759.178,249.399 755,247.5C 749.667,222.167 744.333,196.833 739,171.5C 732.879,196.991 727.213,222.657 722,248.5C 717.934,249.464 713.767,249.797 709.5,249.5C 715.783,216.752 722.45,184.086 729.5,151.5 Z"/></g>
<g><path style="opacity:0.87" fill="#fefffe" d="M 549.5,161.5 C 553.048,166.756 556.048,172.423 558.5,178.5C 555.918,183.333 553.085,188 550,192.5C 546.782,187.897 543.948,183.064 541.5,178C 544.044,172.412 546.711,166.912 549.5,161.5 Z"/></g>
<g><path style="opacity:0.881" fill="#fefffe" d="M 672.5,199.5 C 675.853,205.037 678.853,210.871 681.5,217C 678.667,221.833 675.833,226.667 673,231.5C 669.46,226.923 666.294,222.09 663.5,217C 666.641,211.218 669.641,205.385 672.5,199.5 Z"/></g>
<g><path style="opacity:0.902" fill="#fefffe" d="M 166.5,214.5 C 171.715,216.441 176.715,218.941 181.5,222C 187.951,224.52 194.617,226.186 201.5,227C 184.893,234.078 167.56,236.411 149.5,234C 133.308,231.774 118.641,225.941 105.5,216.5C 112.793,217.523 120.126,219.356 127.5,222C 142.089,226.929 155.089,224.429 166.5,214.5 Z"/></g>
</svg>
