<?xml version="1.0" encoding="utf-8"?>
<!-- Generator: Adobe Illustrator 26.0.1, SVG Export Plug-In . SVG Version: 6.00 Build 0)  -->
<svg version="1.1" id="Слой_1" xmlns="http://www.w3.org/2000/svg" xmlns:xlink="http://www.w3.org/1999/xlink" x="0px" y="0px"
	 viewBox="0 0 683.31 339.36" style="enable-background:new 0 0 683.31 339.36;" xml:space="preserve">
<style type="text/css">
	.st0{fill:none;}
	.st1{fill:#225CA8;}
	.st2{fill:#95C11F;}
	.st3{fill:url(#Новый_узор_5);}
</style>
<pattern  x="1.43" y="-128.99" width="170.08" height="170.08" patternUnits="userSpaceOnUse" id="Новый_узор_5" viewBox="0 -206.91 170.08 170.08" style="overflow:visible;">
	<g>
		<rect y="-206.91" class="st0" width="170.08" height="170.08"/>
		<g>
			
				<rect x="37.73" y="-40.11" transform="matrix(0.7071 -0.7071 0.7071 0.7071 38.0564 18.206)" class="st1" width="6.56" height="6.56"/>
			<rect x="60.95" y="-63.75" class="st1" width="6.56" height="6.56"/>
			<rect x="14.51" y="-63.75" class="st1" width="6.56" height="6.56"/>
			<path class="st1" d="M48.38-38.41l8.65-8.65c2.13-2.13,5.01-3.32,8.02-3.32h15.02L68.1-38.41H48.38z"/>
			<path class="st1" d="M33.63-38.41l-8.65-8.65c-2.13-2.13-5.01-3.32-8.02-3.32H1.94l11.97,11.97H33.63z"/>
			<path class="st1" d="M42.4-42.57l8.65-8.65c2.13-2.13,3.32-5.01,3.32-8.02v-15.02L42.4-62.29V-42.57z"/>
			<path class="st1" d="M39.61-42.57l-8.65-8.65c-2.13-2.13-3.32-5.01-3.32-8.02v-15.02l11.97,11.97V-42.57z"/>
		</g>
		<g>
			<path class="st2" d="M157.25-36.58l4.37-4.37c3.42-3.42,3.42-8.96,0-12.38v0l0,0l-6.3-6.3l-0.09,0.09
				c-3.43,3.43-3.43,8.99,0,12.42l0,0l-4.26,4.26l-17.59-17.59l4.25-4.25l0,0c3.43,3.43,8.99,3.43,12.42,0l0.09-0.09l-6.21-6.21l0,0
				l-0.09-0.09c-3.42-3.42-8.96-3.42-12.38,0l-4.37,4.37l-4.37-4.37c-3.42-3.42-8.96-3.42-12.38,0l-0.09,0.09l0,0l-6.21,6.21
				l0.09,0.09c3.43,3.43,8.99,3.43,12.42,0l0,0l4.25,4.25l-17.59,17.59l-4.26-4.26l0,0c3.43-3.43,3.43-8.99,0-12.42l-0.09-0.09
				l-6.3,6.3l0,0l0,0c-3.42,3.42-3.42,8.96,0,12.38l4.37,4.37l-3.86,3.86c-3.42,3.42-3.42,8.96,0,12.38l0,0l0,0l6.3,6.3l0.09-0.09
				c3.43-3.43,3.43-8.99,0-12.42l0,0l3.75-3.75l17.59,17.59l-3.74,3.74l0,0c-3.43-3.43-8.99-3.43-12.42,0l-0.09,0.09l6.21,6.21l0,0
				l0.09,0.09c3.42,3.42,8.96,3.42,12.38,0l3.86-3.86l3.86,3.86c3.42,3.42,8.96,3.42,12.38,0l0.09-0.09l0,0l6.21-6.21l-0.09-0.09
				c-3.43-3.43-8.99-3.43-12.42,0l0,0l-3.74-3.74l17.59-17.59l3.75,3.75l0,0c-3.43,3.43-3.43,8.99,0,12.42l0.09,0.09l6.3-6.3l0,0
				l0,0c3.42-3.42,3.42-8.96,0-12.38L157.25-36.58z M127.1-18.99L109.5-36.58l17.59-17.59l17.59,17.59L127.1-18.99z"/>
			
				<rect x="121.87" y="-41.68" transform="matrix(0.7071 -0.7071 0.7071 0.7071 63.0556 79.0731)" class="st2" width="10.21" height="10.21"/>
		</g>
		<g>
			<path class="st2" d="M72.21-121.62l4.37-4.37c3.42-3.42,3.42-8.96,0-12.38l0,0l0,0l-6.3-6.3l-0.09,0.09
				c-3.43,3.43-3.43,8.99,0,12.42l0,0l-4.26,4.26l-17.59-17.59l4.25-4.25l0,0c3.43,3.43,8.99,3.43,12.42,0l0.09-0.09l-6.21-6.21l0,0
				l-0.09-0.09c-3.42-3.42-8.96-3.42-12.38,0l-4.37,4.37l-4.37-4.37c-3.42-3.42-8.96-3.42-12.38,0l-0.09,0.09l0,0l-6.21,6.21
				l0.09,0.09c3.43,3.43,8.99,3.43,12.42,0l0,0l4.25,4.25L18.18-127.9l-4.26-4.26l0,0c3.43-3.43,3.43-8.99,0-12.42l-0.09-0.09
				l-6.3,6.3l0,0l0,0c-3.42,3.42-3.42,8.96,0,12.38l4.37,4.37l-3.86,3.86c-3.42,3.42-3.42,8.96,0,12.38l0,0l0,0l6.3,6.3l0.09-0.09
				c3.43-3.43,3.43-8.99,0-12.42l0,0l3.75-3.75l17.59,17.59L32.03-94l0,0c-3.43-3.43-8.99-3.43-12.42,0l-0.09,0.09l6.21,6.21l0,0
				l0.09,0.09c3.42,3.42,8.96,3.42,12.38,0l3.86-3.86l3.86,3.86c3.42,3.42,8.96,3.42,12.38,0l0.09-0.09l0,0l6.21-6.21L64.51-94
				c-3.43-3.43-8.99-3.43-12.42,0l0,0l-3.74-3.74l17.59-17.59l3.75,3.75l0,0c-3.43,3.43-3.43,8.99,0,12.42l0.09,0.09l6.3-6.3l0,0
				l0,0c3.42-3.42,3.42-8.96,0-12.38L72.21-121.62z M42.06-104.03l-17.59-17.59l17.59-17.59l17.59,17.59L42.06-104.03z"/>
			
				<rect x="36.83" y="-126.72" transform="matrix(0.7071 -0.7071 0.7071 0.7071 98.2801 -5.9663)" class="st2" width="10.21" height="10.21"/>
			
				<rect x="122.77" y="-125.15" transform="matrix(0.7071 -0.7071 0.7071 0.7071 123.0958 53.4305)" class="st1" width="6.56" height="6.56"/>
			<rect x="145.99" y="-148.79" class="st1" width="6.56" height="6.56"/>
			<rect x="145.99" y="-102.28" class="st1" width="6.56" height="6.56"/>
			<rect x="99.55" y="-102.28" class="st1" width="6.56" height="6.56"/>
			<rect x="99.55" y="-148.79" class="st1" width="6.56" height="6.56"/>
			<path class="st1" d="M124.65-116.14l-8.65,8.65c-2.13,2.13-3.32,5.01-3.32,8.02v15.02l11.97-11.97V-116.14z"/>
			<path class="st1" d="M127.44-116.14l8.65,8.65c2.13,2.13,3.32,5.01,3.32,8.02v15.02l-11.97-11.97V-116.14z"/>
			<path class="st1" d="M133.42-120.67l8.65,8.65c2.13,2.13,5.01,3.32,8.02,3.32h15.02l-11.97-11.97H133.42z"/>
			<path class="st1" d="M133.42-123.45l8.65-8.65c2.13-2.13,5.01-3.32,8.02-3.32h15.02l-11.97,11.97H133.42z"/>
			<path class="st1" d="M118.67-120.67l-8.65,8.65c-2.13,2.13-5.01,3.32-8.02,3.32H86.98l11.97-11.97H118.67z"/>
			<path class="st1" d="M118.67-123.45l-8.65-8.65c-2.13-2.13-5.01-3.32-8.02-3.32H86.98l11.97,11.97H118.67z"/>
			<path class="st1" d="M127.44-127.61l8.65-8.65c2.13-2.13,3.32-5.01,3.32-8.02v-15.02l-11.97,11.97V-127.61z"/>
			<path class="st1" d="M124.65-127.61l-8.65-8.65c-2.13-2.13-3.32-5.01-3.32-8.02v-15.02l11.97,11.97V-127.61z"/>
		</g>
		<g>
			
				<rect x="37.73" y="-210.19" transform="matrix(0.7071 -0.7071 0.7071 0.7071 158.3203 -31.6089)" class="st1" width="6.56" height="6.56"/>
			<rect x="60.95" y="-187.32" class="st1" width="6.56" height="6.56"/>
			<rect x="14.51" y="-187.32" class="st1" width="6.56" height="6.56"/>
			<path class="st1" d="M39.61-201.18l-8.65,8.65c-2.13,2.13-3.32,5.01-3.32,8.02v15.02l11.97-11.97V-201.18z"/>
			<path class="st1" d="M42.4-201.18l8.65,8.65c2.13,2.13,3.32,5.01,3.32,8.02v15.02L42.4-181.46V-201.18z"/>
			<path class="st1" d="M48.38-205.71l8.65,8.65c2.13,2.13,5.01,3.32,8.02,3.32h15.02L68.1-205.71H48.38z"/>
			<path class="st1" d="M33.63-205.71l-8.65,8.65c-2.13,2.13-5.01,3.32-8.02,3.32H1.94l11.97-11.97H33.63z"/>
		</g>
		<g>
			<path class="st2" d="M157.25-206.66l4.37-4.37c3.42-3.42,3.42-8.96,0-12.38v0l0,0l-6.3-6.3l-0.09,0.09
				c-3.43,3.43-3.43,8.99,0,12.42l0,0l-4.26,4.26l-17.59-17.59l4.25-4.25l0,0c3.43,3.43,8.99,3.43,12.42,0l0.09-0.09l-6.21-6.21l0,0
				l-0.09-0.09c-3.42-3.42-8.96-3.42-12.38,0l-4.37,4.37l-4.37-4.37c-3.42-3.42-8.96-3.42-12.38,0l-0.09,0.09l0,0l-6.21,6.21
				l0.09,0.09c3.43,3.43,8.99,3.43,12.42,0l0,0l4.25,4.25l-17.59,17.59l-4.26-4.26l0,0c3.43-3.43,3.43-8.99,0-12.42l-0.09-0.09
				l-6.3,6.3l0,0l0,0c-3.42,3.42-3.42,8.96,0,12.38l4.37,4.37l-3.86,3.86c-3.42,3.42-3.42,8.96,0,12.38l0,0l0,0l6.3,6.3l0.09-0.09
				c3.43-3.43,3.43-8.99,0-12.42l0,0l3.75-3.75l17.59,17.59l-3.74,3.74h0c-3.43-3.43-8.99-3.43-12.42,0l-0.09,0.09l6.21,6.21l0,0
				l0.09,0.09c3.42,3.42,8.96,3.42,12.38,0l3.86-3.86l3.86,3.86c3.42,3.42,8.96,3.42,12.38,0l0.09-0.09l0,0l6.21-6.21l-0.09-0.09
				c-3.43-3.43-8.99-3.43-12.42,0l0,0l-3.74-3.74l17.59-17.59l3.75,3.75l0,0c-3.43,3.43-3.43,8.99,0,12.42l0.09,0.09l6.3-6.3l0,0
				l0,0c3.42-3.42,3.42-8.96,0-12.38L157.25-206.66z M127.1-189.07l-17.59-17.59l17.59-17.59l17.59,17.59L127.1-189.07z"/>
			
				<rect x="121.87" y="-211.76" transform="matrix(0.7071 -0.7071 0.7071 0.7071 183.3195 29.2582)" class="st2" width="10.21" height="10.21"/>
		</g>
	</g>
</pattern>
<rect class="st3" width="683.31" height="339.36"/>
</svg>
