<?xml version="1.0" encoding="utf-8"?>
<!-- Generator: Adobe Illustrator 26.0.1, SVG Export Plug-In . SVG Version: 6.00 Build 0)  -->
<svg version="1.1" id="Слой_1" xmlns="http://www.w3.org/2000/svg" xmlns:xlink="http://www.w3.org/1999/xlink" x="0px" y="0px"
	 viewBox="0 0 66 31.9" style="enable-background:new 0 0 66 31.9;" xml:space="preserve">
<style type="text/css">
	.st0{fill:#FFFFFF;}
</style>
<circle class="st0" cx="28.7" cy="6.5" r="3.8"/>
<circle class="st0" cx="42.8" cy="5.4" r="5.4"/>
<path class="st0" d="M65.9,31.8C59.9,26.1,54,20.4,48,14.6c-1.8-0.7-3.5-1.4-5.2-2.2c-2.1,1.6-4.2,3.1-6.3,4.7
	c-0.7-0.6-1.5-1.1-2.2-1.7c-1.8-1.3-3.6-2.6-5.5-3.9c-2.9,2.1-5.7,4.2-8.6,6.3c-2.5,0.6-5.1,1.1-7.6,1.7C10.7,22,8.9,24.5,7,27
	c-0.8,0-1.5,0.1-2.3,0.1c-1.5,1.6-3.1,3.2-4.7,4.8c9,0,18,0,27,0c0,0,0.1-0.1,0.1-0.1C40,31.8,53,31.8,65.9,31.8z"/>
</svg>
