<?xml version="1.0" encoding="utf-8"?>
<!-- Generator: Adobe Illustrator 26.0.1, SVG Export Plug-In . SVG Version: 6.00 Build 0)  -->
<svg version="1.1" id="Слой_1" xmlns="http://www.w3.org/2000/svg" xmlns:xlink="http://www.w3.org/1999/xlink" x="0px" y="0px"
	 viewBox="0 0 66 42.2" style="enable-background:new 0 0 66 42.2;" xml:space="preserve">
<style type="text/css">
	.st0{fill:#FFFFFF;}
</style>
<path class="st0" d="M0,42.1C1.4,29,2.8,15.9,4.1,2.7h7.5c0.8,6.9,1.6,13.7,2.5,20.6c-2.1,6.1-3.4,12.4-4,18.9L0,42.1z"/>
<path class="st0" d="M21.3,14.9c-1.6,0-3,1-3.6,2.5c-1.3,3.4-2.4,6.8-3.3,10.3c-1.2,4.7-2.1,9.6-2.5,14.4H19
	c0.9-9.3,3.1-18.5,6.5-27.2H21.3z"/>
<path class="st0" d="M32.1,14.9c-1.6,0-3,1-3.6,2.5c-1.3,3.4-2.4,6.8-3.3,10.3c-1.2,4.7-2.1,9.6-2.5,14.4h7.1
	c0.9-9.3,3.1-18.5,6.5-27.2H32.1z"/>
<path class="st0" d="M42.8,14.9c-1.6,0-3,1-3.6,2.5c-1.3,3.4-2.4,6.8-3.3,10.3c-1.2,4.7-2.1,9.6-2.5,14.4h7.1
	c0.9-9.3,3.1-18.5,6.5-27.2H42.8z"/>
<path class="st0" d="M15.9,19.5l-1.9-16h37.7l-3.9,38.6l-6.2,0.1c0.5-4.3,1.3-8.7,2.3-12.9c1.2-5,2.7-9.9,4.6-14.6V7.2h-9.4v7.1
	c-1.6,3.8-2.9,7.8-4,11.8c-1.4,5.2-2.3,10.4-2.8,15.7h-1.6c0.7-5.6,1.9-11.2,3.4-16.6c1.1-3.9,2.3-7.5,3.6-10.8V7.1h-9.3v7.1
	c-1.6,4-2.9,8-4,12.1C23,31.5,22.1,36.7,21.5,42H20c1-9.5,3.3-18.8,6.9-27.7V7.1h-9.2v7L15.9,19.5z"/>
<polygon class="st0" points="54.3,2.9 56.5,2.9 53.6,42.1 49.9,42.2 "/>
<polygon class="st0" points="58.9,2.9 61.7,2.9 66,42.1 55.8,42.1 "/>
</svg>
