<?xml version="1.0" encoding="utf-8"?>
<!-- Generator: Adobe Illustrator 26.0.1, SVG Export Plug-In . SVG Version: 6.00 Build 0)  -->
<svg version="1.1" id="Слой_1" xmlns="http://www.w3.org/2000/svg" xmlns:xlink="http://www.w3.org/1999/xlink" x="0px" y="0px"
	 viewBox="0 0 66 31.1" style="enable-background:new 0 0 66 31.1;" xml:space="preserve">
<style type="text/css">
	.st0{fill:#FFFFFF;}
</style>
<path class="st0" d="M0,27.7c1-1.2,8.6-10.3,14.7-15.4c2.6-2.2,4.6-3.6,6.1-4.4C23,6.5,24.1,6,25.3,5.7c2.4-0.4,4.1,1.2,7.5,4
	c2.1,1.6,5.2,4.1,9.2,7c0.5-0.7,1.3-1.5,2.3-2.2c0,0,1.3-1,2.7-1.4c3.6-1.1,11.7,7.4,11.7,7.4c2,2.1,4.5,4.9,7.3,8.7
	c-1.6-1.2-2.8-1.5-3.7-1.5c-0.4,0-2,0-2,0s-5.1,0.4-9.6,3.3c-0.5,0-0.7,0.1-0.6,0.1c3.5-2.9,4-4.5,3.9-5.5c-0.1-0.8-0.8-1-2.4-2.5
	c-1.1-1.1-2-2.1-2.5-2.7c0.2-1,0-1.5-0.1-1.9c-0.7-1.8-3-1.9-4.6-1.1c-1.2,0.5-1.9,1.6-2.1,2.1c-1.3,1.9-3.7,4.2-8.8,6.4
	c0-0.4-0.1-1.2-0.5-1.9c-0.7-1.1-1.8-1.2-2.2-1.2c-1.6,0-2.9,1.4-3.2,1.6c-1.4,1.5-4.4,3.3-11.3,4.5c3.9-1.5,6.8-3.6,8.6-5.2
	c2.8-2.5,3.3-3.8,3.2-4.8c-0.1-1.9-2.4-3.1-2.1-5.2c0-0.3,0.2-0.7,0.4-1.5c0.6-1.8,0.9-2.1,0.8-2.6c-0.2-1-1.5-1.5-2.6-1.5
	c-1.7,0-3,1.1-3.3,1.4c-3.8,3.4-7.9,6-11.6,9.6C7.4,21.3,4.2,24.3,0,27.7z"/>
</svg>
