<?xml version="1.0" encoding="utf-8"?>
<!-- Generator: Adobe Illustrator 26.0.1, SVG Export Plug-In . SVG Version: 6.00 Build 0)  -->
<svg version="1.1" id="Слой_1" xmlns="http://www.w3.org/2000/svg" xmlns:xlink="http://www.w3.org/1999/xlink" x="0px" y="0px"
	 viewBox="0 0 66 67.5" style="enable-background:new 0 0 66 67.5;" xml:space="preserve">
<style type="text/css">
	.st0{fill:#FFFFFF;}
</style>
<g>
	<path class="st0" d="M56.1,11.4c-17,4.2-21.7,7.1-21.6,9.2c0.2,2.9,9.8,3.8,9.8,6.8c0.1,4.2-18.7,6.9-18.5,10
		c0.2,3.3,21.8,0.7,32,13.7c0.8,1.1,1.5,2.1,2,3c3.9-5.4,6.2-12,6.2-19.2C66,25.7,62.2,17.4,56.1,11.4z"/>
	<path class="st0" d="M27.7,57.7C25,47.6,16,44.7,17.2,39.2c1.1-5.1,9.7-8.3,12.1-9.2c4.2-1.6,7.7-1.7,7.8-2.7
		c0-1.6-10.7-1.8-11.4-5.3c-0.4-2.3,3.7-4.9,5.4-5.9c3.9-2.4,11.3-5.8,23.7-6.1C48.9,5,41.3,1.9,33,1.9c-18.2,0-33,14.8-33,33
		c0,16.5,12.2,30.2,28,32.6C28.5,64.8,28.7,61.4,27.7,57.7z"/>
</g>
</svg>
