<?xml version="1.0" encoding="utf-8"?>
<!-- Generator: Adobe Illustrator 26.0.1, SVG Export Plug-In . SVG Version: 6.00 Build 0)  -->
<svg version="1.1" id="Слой_1" xmlns="http://www.w3.org/2000/svg" xmlns:xlink="http://www.w3.org/1999/xlink" x="0px" y="0px"
	 viewBox="0 0 66 67" style="enable-background:new 0 0 66 67;" xml:space="preserve">
<style type="text/css">
	.st0{fill:#FFFFFF;}
</style>
<ellipse transform="matrix(0.3827 -0.9239 0.9239 0.3827 -3.0345 70.7162)" class="st0" cx="51.4" cy="37.6" rx="5.3" ry="5.3"/>
<path class="st0" d="M45.4,44.8c0.6-0.6,0.6-1.4,0-1.9c-0.6-0.6-1.4-0.6-2,0c-0.6,0.6-1,1-1.5,1.4v-5.1c0.2,0,0.3,0,0.6,0
	c0.7,0,1.2-0.6,1.2-1.2c0-0.8-0.5-1.3-1.2-1.3c-0.2,0-0.4,0-0.6,0V20.4c0-4.7-3.7-8.4-8.4-8.5c0-0.1,0-0.1,0.1-0.2
	c0.2-0.7-0.3-1.4-0.9-1.5l-3.8-1.2l0.9-3.8c0.2-0.7-0.3-1.4-0.9-1.5c-0.7-0.2-1.4,0.3-1.5,0.9l-1.1,4.4l-3.8,2V6.7l3.4-3.2
	c0.5-0.5,0.5-1.3,0.1-1.8c-0.5-0.5-1.3-0.5-1.8-0.1l-3,2.8l-3-2.8c-0.5-0.5-1.3-0.4-1.8,0.1c-0.5,0.5-0.5,1.3,0,1.8l3.4,3.2v4.4
	L16,8.9l-1.1-4.5c-0.2-0.7-0.8-1.1-1.5-0.9c-0.7,0.2-1.1,0.8-0.9,1.5l0.9,3.9l-3.8,1c-0.7,0.2-1.1,0.8-0.9,1.5
	c0.2,0.6,0.7,0.9,1.2,0.9c0.1,0,0.3,0,0.3-0.1l4.6-1.2l4.1,2.1l-4.1,2.2l-4.6-1.2c-0.7-0.2-1.4,0.3-1.5,0.9
	c-0.2,0.7,0.3,1.4,0.9,1.5l3.8,1l-0.9,4.1c-0.2,0.7,0.3,1.4,0.9,1.5c0.1,0,0.2,0,0.3,0c0.6,0,1.1-0.4,1.3-1l1.1-4.7l3.8-2.1v4.7
	l-3.1,3c-0.5,0.5-0.5,1.3,0,1.8c0.3,0.3,0.6,0.4,0.9,0.4c0.3,0,0.6-0.1,0.8-0.3l2.7-2.5l2.7,2.5c0.3,0.3,0.6,0.3,0.8,0.3
	c0,0,0.1,0,0.1,0v19.5c-2.6,2.4-4.1,5.9-4.1,9.4c0,7.1,5.7,12.8,12.8,12.8c7.1,0,12.8-5.7,12.8-12.8c-0.1-2.8-1-5.4-2.6-7.5
	C44.3,46,44.7,45.4,45.4,44.8z M27.5,11.3l3.4,0.9c-1.6,0.5-3,1.5-4.1,2.7l-3.3-1.5L27.5,11.3z M22.4,20.4v-4.7l2.9,1.6
	c-0.4,0.9-0.6,1.9-0.6,3v2.1L22.4,20.4z M33.4,66.2c-6.6,0-11.9-5.4-11.9-11.9c0-3.4,1.5-6.6,4-8.9l0.1-0.1V20.4
	c0-4.2,3.5-7.7,7.7-7.7c4.2,0,7.7,3.5,7.7,7.7v24.8l0.2,0.1c2.6,2.2,4.1,5.4,4.2,8.9C45.4,60.8,40,66.2,33.4,66.2z"/>
<path class="st0" d="M36.2,48V29c0-1.5-1.3-2.8-2.8-2.8c-1.5,0-2.8,1.3-2.8,2.8v19.1c-2.3,1.1-3.9,3.5-3.9,6.2c0,3.7,3,6.8,6.8,6.8
	c3.7,0,6.8-3,6.8-6.8C40.2,51.4,38.5,49.1,36.2,48z"/>
<path class="st0" d="M63.2,36.4h-3c-0.7,0-1.2,0.5-1.2,1.2c0,0.7,0.5,1.2,1.2,1.2h3c0.7,0,1.2-0.5,1.2-1.2
	C64.4,37,63.9,36.4,63.2,36.4z"/>
<path class="st0" d="M58.8,32.6l2.1-2.1c0.5-0.5,0.5-1.3,0-1.7c-0.5-0.5-1.3-0.5-1.7,0l-2.1,2.1c-0.5,0.5-0.5,1.3,0,1.7
	C57.6,33.1,58.4,33.1,58.8,32.6z"/>
<path class="st0" d="M44.7,32.5c0.5,0.5,1.3,0.5,1.7,0c0.5-0.5,0.5-1.3,0-1.7l-2.1-2.1c-0.5-0.5-1.3-0.5-1.7,0
	c-0.5,0.5-0.5,1.3,0,1.7L44.7,32.5z"/>
<path class="st0" d="M58.6,42.9c-0.5-0.5-1.3-0.5-1.7,0c-0.5,0.5-0.5,1.3,0,1.7l2.1,2.1c0.5,0.5,1.3,0.5,1.7,0
	c0.5-0.5,0.5-1.3,0-1.7L58.6,42.9z"/>
<path class="st0" d="M51.4,44.5c-0.7,0-1.2,0.5-1.2,1.2v3c0,0.7,0.5,1.2,1.2,1.2c0.7,0,1.2-0.5,1.2-1.2v-3
	C52.6,45,52.1,44.5,51.4,44.5z"/>
<path class="st0" d="M51.4,30.8c0.7,0,1.2-0.5,1.2-1.2v-3c0-0.7-0.5-1.2-1.2-1.2c-0.7,0-1.2,0.5-1.2,1.2v3
	C50.2,30.2,50.7,30.8,51.4,30.8z"/>
</svg>
