<?xml version="1.0" encoding="utf-8"?>
<!-- Generator: Adobe Illustrator 26.0.3, SVG Export Plug-In . SVG Version: 6.00 Build 0)  -->
<svg version="1.1" id="Слой_1" xmlns="http://www.w3.org/2000/svg" xmlns:xlink="http://www.w3.org/1999/xlink" x="0px" y="0px"
	 viewBox="0 0 31.9 31.9" style="enable-background:new 0 0 31.9 31.9;" xml:space="preserve">
<style type="text/css">
	.st0{fill:#FFFFFF;}
</style>
<path class="st0" d="M7,2.7c-0.4,0.4-0.7,1-0.8,1.6c-0.1,1.2,1,2.1,2.1,3.2c0.6,0.5,1.3,1,2,1.2C10.9,9,11.5,9.1,12.1,9
	c1.2-0.3,1.8-1.4,2.1-2.1C14.9,5.5,15,4,14.7,2.6c0-0.6-0.2-1.1-0.6-1.5c-0.8-0.8-2.2-0.6-3.1-0.4C9.5,1,8.1,1.7,7,2.7z"/>
<path class="st0" d="M17.9,0.7c-0.7,0.4-1.2,1-1.6,1.7c-0.4,0.5-0.5,1.1-0.5,1.7c0.2,0.8,1,1.2,1.8,1.7c1.2,0.6,3.1,1.6,4.4,0.7
	c0.7-0.6,1.1-1.5,1-2.5c0-1.5-0.8-3.5-2.4-3.9C19.7-0.1,18.7,0.1,17.9,0.7z"/>
<path class="st0" d="M16.8,7.3c-0.6,0-1.2,0.2-1.7,0.4c-0.5,0.2-1.1,0.5-1.2,1s0.4,1.1,1.1,1.7s1.6,1.5,3,2.9c0.1,0,0.3,0,0.4,0
	c0.3-0.1,0.5-0.5,0.7-1c0.3-1.2,0.5-2.5,0.5-3.8c-0.1-0.2-0.3-0.5-0.5-0.7C18.4,7.3,17.6,7.1,16.8,7.3z"/>
<path class="st0" d="M7.9,9.1C7.4,9.3,7,9.7,6.7,10.2c-0.1,0.2-1.6,2.3-0.6,3.8c0.6,0.6,1.4,1,2.2,1l8.6-0.3
	c0.3-0.1,0.8-0.3,0.8-0.6s-0.6-0.9-2.9-2.1c-1-0.6-2-1.1-3.8-2S8.6,8.8,7.9,9.1z"/>
<path class="st0" d="M2,9.2C1.7,9.3,1.4,9.4,1.1,9.7c-0.5,0.6-0.9,1.4-0.9,2.2c-0.2,1.1-0.3,1.6,0,2c0.4,0.5,1.3,0.4,1.7,0.4
	c1.7-0.1,3.4-1.5,3.2-2.6c0-0.2-0.2-0.4-0.6-0.8C3.5,9.8,2.8,9.1,2,9.2z"/>
<path class="st0" d="M5.2,14.5c-0.2-0.3-0.6-0.5-1-0.6c-0.4,0-0.9,0.2-1.2,0.5c-1,0.8-1.7,1.9-2.3,3C0.4,18.2,0.1,19,0,19.9
	c0,0.2,0.1,0.4,0.2,0.5c0.2,0.1,0.3,0.1,0.5,0.1C2,20.3,3.2,20,4.4,19.6c2.9-1.2,3.2-1,3.3-1.5C8,17.6,7.1,16.6,5.2,14.5z"/>
<path class="st0" d="M10,18.8c-0.3-0.3-0.7-0.4-1.1-0.4c-1.1,0.1-2,2.5-1.4,3.2c0.3,0.3,1,0.2,1.5,0.1c0.3,0,1.7-0.3,1.9-1.1
	c0.1-0.3,0-0.6-0.1-0.9C10.6,19.4,10.4,19.1,10,18.8z"/>
<path class="st0" d="M9.4,15.8C9.2,15.9,9,16,8.9,16.2c0,0.1-0.1,0.4,0.6,1.2c0.8,1,1.3,1.6,2,1.5c0.5,0,0.9-0.5,1.7-1.5
	c0.5-0.6,0.6-0.9,0.6-1.1c-0.1-0.2-0.3-0.4-0.5-0.5C12.2,15.1,9.9,15.7,9.4,15.8z"/>
<path class="st0" d="M7,21.8c-0.2-0.6-0.6-1-1.1-1.3c-0.7-0.2-1.5-0.1-2.1,0.2c-0.8,0.3-1.6,0.9-2,1.7c-0.6,1.5,0.8,4.1,3.9,5.7
	C6.1,28.3,6.6,28.2,7,28c0.4-0.3,0.6-0.7,0.5-1.1c0.1-0.9,0.1-1.9-0.1-2.9C7.3,23.2,7.2,22.5,7,21.8z"/>
<path class="st0" d="M11.1,22.5c-0.4-0.2-0.9-0.3-1.3-0.3c-0.5,0.1-0.9,0.5-1.1,0.9C8,24.3,8,25.6,8.4,26.7c0.1,0.2,0.3,0.4,0.5,0.5
	c1.4,0.7,3.2,0.2,4.1-1.1c0.2-0.4,0.3-0.8,0.3-1.2C13.2,23.5,11.6,22.8,11.1,22.5z"/>
<path class="st0" d="M12.5,28.6c-0.2-0.4-0.3-0.6-0.6-0.7s-0.4,0-0.8,0.2c-1.1,0.6-1.7,0.9-1.8,1.4c0,0.2,0,0.5,0.1,0.7
	c0.1,0.3,0.4,0.4,1.1,0.7c0.5,0.2,0.9,0.4,1.2,0.5c0.6,0.2,0.9,0,0.9,0C13.4,30.8,12.7,29.1,12.5,28.6z"/>
<path class="st0" d="M16.7,25.5c-1.8,0.8-2.5,0.7-3.1,1.5c-0.3,0.3-0.4,0.7-0.4,1.1c0.1,0.4,0.3,0.7,0.6,1c1.1,1.1,2.4,2,3.8,2.6
	c0.2,0.1,0.4,0.1,0.7,0.1c0.3,0,0.6-0.1,0.8-0.2c0.7-0.4,0.7-1.6,1.1-4c0.2-1.3,0.4-1.9,0.1-2.4c-0.3-0.3-0.7-0.6-1.1-0.7
	C18.4,24.5,18,24.9,16.7,25.5z"/>
<path class="st0" d="M27.8,18c-0.8-0.3-1.6-0.4-2.5-0.2c-1,0.1-1.9,0.6-2.5,1.4c-0.5,0.8-0.8,1.7-0.9,2.6c-0.4,1.7-0.2,1.6-0.6,3.7
	c-0.2,0.8-0.4,1.7-0.4,2.6c0,1.3,0.4,1.7,0.5,1.9c0.5,0.5,1.2,0.8,1.9,0.6c0.5-0.1,0.9-0.3,1.2-0.7c2.4-2.1,1.8-1.4,2.6-2.2
	c1.9-2,3-3.1,3.6-5c0.4-0.7,0.5-1.6,0.3-2.4C30.4,18.8,28.5,18.2,27.8,18z"/>
<path class="st0" d="M31.8,15.6c0-0.2-0.1-0.5-0.3-0.6c-0.2-0.1-0.4-0.1-1.1,0.2c-0.6,0.1-1.2,0.4-1.7,0.8c-0.2,0.2-0.4,0.4-0.4,0.6
	s0.1,0.5,0.9,1.1c1,0.8,1.5,1.2,2,1.1c0.2-0.1,0.4-0.2,0.6-0.4c0.1-0.5,0.1-1.1,0.1-1.7C31.8,16.4,31.8,16,31.8,15.6z"/>
<path class="st0" d="M29,10.2c-0.4,0.1-0.8,0.3-1.1,0.6c-0.9,0.8-1.6,2.4-0.9,3.3c0.5,0.6,1.5,0.6,2.7,0.5c0.5,0,0.9-0.1,1.3-0.3
	c0.6-0.8,0.7-1.9,0.1-2.7C30.7,10.7,29.9,10.2,29,10.2z"/>
<path class="st0" d="M20.6,12c-0.5,0.3-0.6,1-0.7,1.5c-0.2,1.4,0.5,2.8,1.8,3.4l4.2,0.2c0.1,0,0.3,0,0.4-0.1
	c0.3-0.2,0.5-0.5,0.5-0.9c0-0.4-0.2-0.7-0.5-0.9c-0.8-0.7-1.5-1.4-2.4-2.1C22.3,12.2,21.3,11.6,20.6,12z"/>
<path class="st0" d="M21.4,8.7C21.9,8,22.4,7.4,23,6.8c1.8-1.9,1.8-3.3,2.7-3.4c0.3,0,0.7,0.1,1.3,0.7L28.5,8c0.1,0.4,0.1,0.8,0,1.2
	c-0.2,0.4-0.6,0.9-1.9,1.3c-1.6,0.5-3.2,0.6-4.8,0.3c-0.3,0-0.6-0.2-0.8-0.4C20.7,10,21.1,9.2,21.4,8.7z"/>
<path class="st0" d="M19.5,15.9c-0.4-0.4-0.9-0.7-1.5-0.8c-0.9-0.1-1.6,0.4-2.7,1.1c-1.3,1-2.4,2.4-3.1,3.9
	c-0.1,0.2-0.2,0.5-0.2,0.8c0,0.8,0.4,1.5,1,2.1c2,2,5.6,1.1,6.7,0.7c0.3-0.1,0.6-0.3,0.8-0.6c0.4-0.5,0.6-1.2,0.5-1.9
	C20.9,19,20.8,17.2,19.5,15.9z"/>
<path class="st0" d="M4.8,4.6C4.1,4.6,3.7,5.4,3,6.5C2.5,7.5,2.5,7.8,2.6,7.9c0.1,0.5,0.5,0.7,1,1.2c0.6,0.6,1.5,0.9,2.4,0.8
	c0.1,0,0.3-0.1,0.4-0.2c1-0.8-0.8-4.4-0.9-4.7C5.2,4.7,5,4.6,4.8,4.6z"/>
</svg>
