<?xml version="1.0" encoding="utf-8"?>
<!-- Generator: Adobe Illustrator 26.0.1, SVG Export Plug-In . SVG Version: 6.00 Build 0)  -->
<svg version="1.1" id="Слой_1" xmlns="http://www.w3.org/2000/svg" xmlns:xlink="http://www.w3.org/1999/xlink" x="0px" y="0px"
	 viewBox="0 0 66 68.5" style="enable-background:new 0 0 66 68.5;" xml:space="preserve">
<style type="text/css">
	.st0{fill:#FFFFFF;}
</style>
<g>
	<path class="st0" d="M64.8,31.6L33.4,0.2c1.7,5.3,3.4,10.5,5.1,15.8c0,0.6-0.1,1.4-0.3,2.4c-0.9,4.4-2.5,5.4-2.2,7.9
		c0.1,0.9,0.3,0.6,1.3,3.8c0.4,1.4,0.7,2.6,0.9,3.4c1.1,1.2,2,1.4,2.6,1.4s1-0.3,1.6-0.1c0.5,0.2,0.5,0.5,1.2,1.1
		c0.4,0.4,0.7,0.5,1.2,0.8s1.2,0.8,2,1.6c-0.6-0.2-1.5-0.4-2.5-0.3c-0.5,0-0.7,0.1-1.4,0.2c-0.6,0.1-1.5,0.2-2.6,0.2
		C40,38.6,39.6,39,39,39.3c-1.1,0.6-2.2,0.7-2.8,0.8c-0.3,2.2-0.7,4.4-1,6.6c0.3,0.2,0.7,0.5,1,1c0.4,0.8,0.2,1.6,0.2,2.3
		c0,1.8,1.5,3,1.9,3.5c1,1.3,0.8,4.8-4.5,14.7l30.9-30.9C66.4,35.7,66.4,33.2,64.8,31.6z"/>
	<path class="st0" d="M31,61.6c0.2-1.1,0.7-3,0.7-5.8c0-0.8,0-1.9-0.6-3.1c-0.5-0.9-1-1.1-1.5-1.8c-1.2-1.6-0.8-3.3-1.1-6.2
		c-0.1-1.3-0.4-3.1-1-5.2c-1.1-0.8-2-1.1-2.6-1.2c-1.6-0.2-2.5,0.4-3.7-0.2C21,38,20.3,37.6,20.3,37c0-0.4,0.5-0.7,0.9-0.9
		c1.8-1,5.3-1.7,6.5-2c0.5-1,1-1.9,1.5-2.9c-0.4-0.7-0.7-1.8-0.7-3.1c0-1,0.3-1.7,0.6-2.4c1.1-3.1-0.1-3.7,0.8-6.3s2.3-2.7,2.4-4.8
		c0.2-1.8-0.7-3.2-0.9-3.5c-0.6-1.1-0.8-3.8,1.1-10.5L1,31.9c-1.4,1.4-1.4,3.7,0,5.1l31.5,31.5C30.9,65.4,30.8,63.2,31,61.6z"/>
</g>
</svg>
