<?xml version="1.0" encoding="UTF-8"?>
<!DOCTYPE svg PUBLIC "-//W3C//DTD SVG 1.1//EN" "http://www.w3.org/Graphics/SVG/1.1/DTD/svg11.dtd">
<svg xmlns="http://www.w3.org/2000/svg" version="1.1" width="555px" height="382px" style="shape-rendering:geometricPrecision; text-rendering:geometricPrecision; image-rendering:optimizeQuality; fill-rule:evenodd; clip-rule:evenodd" xmlns:xlink="http://www.w3.org/1999/xlink">
<g><path style="opacity:0.964" fill="#93c11e" d="M 487.5,-0.5 C 488.5,-0.5 489.5,-0.5 490.5,-0.5C 499.719,0.183112 508.386,3.01645 516.5,8C 517.574,8.73869 518.241,9.73869 518.5,11C 504.881,34.4024 491.381,57.9024 478,81.5C 477.107,82.7112 476.274,82.7112 475.5,81.5C 468.754,68.3407 461.754,55.3407 454.5,42.5C 436.167,76.5 417.833,110.5 399.5,144.5C 398.833,145.833 398.167,145.833 397.5,144.5C 394.833,140.167 392.167,135.833 389.5,131.5C 388.833,130.167 388.167,130.167 387.5,131.5C 368.5,162.833 349.5,194.167 330.5,225.5C 329.5,205.511 329.167,185.511 329.5,165.5C 355.481,164.354 372.314,151.354 380,126.5C 384.501,97.9984 373.668,77.8318 347.5,66C 341.659,64.0491 335.659,63.2158 329.5,63.5C 329.5,43.1667 329.5,22.8333 329.5,2.5C 372.03,4.00661 404.53,22.6733 427,58.5C 433.92,46.9962 440.586,35.3295 447,23.5C 456.654,8.92589 470.154,0.925891 487.5,-0.5 Z"/></g>
<g><path style="opacity:0.978" fill="#235ba7" d="M 27.5,2.5 C 54.1366,2.72736 73.3032,14.7274 85,38.5C 86.7405,43.0544 88.0739,47.7211 89,52.5C 89.1674,64.5139 89.6674,76.5139 90.5,88.5C 96.774,86.4418 101.941,82.7751 106,77.5C 129.684,23.0671 171.184,-1.43294 230.5,4C 275.872,13.3713 305.372,40.2047 319,84.5C 326.081,113.933 322.414,141.933 308,168.5C 307.223,170.215 305.89,171.215 304,171.5C 292.99,170.338 283.823,165.671 276.5,157.5C 269.684,163.741 261.684,167.574 252.5,169C 244.5,169.333 236.5,169.667 228.5,170C 249.185,180.671 271.185,186.338 294.5,187C 285.985,196.189 276.318,203.856 265.5,210C 243.429,210.3 227.095,200.8 216.5,181.5C 213.053,186.12 209.386,190.62 205.5,195C 202.211,197.478 198.544,199.144 194.5,200C 187.833,200.667 181.167,200.667 174.5,200C 161.537,197.407 148.537,195.074 135.5,193C 130.126,188.228 125.46,182.895 121.5,177C 127.155,175.062 132.988,173.896 139,173.5C 150.919,175.384 162.753,177.717 174.5,180.5C 184.62,182.152 194.62,181.652 204.5,179C 188.536,179.356 176.869,172.522 169.5,158.5C 166.049,163.397 161.382,166.564 155.5,168C 143.356,169.609 131.356,171.609 119.5,174C 108.49,156.809 102.323,137.975 101,117.5C 99.8829,115.876 98.3829,114.876 96.5,114.5C 94.2383,115.467 91.905,116.134 89.5,116.5C 89.6667,151.835 89.5,187.168 89,222.5C 67.9089,223.494 46.7422,223.827 25.5,223.5C 25.3333,150.833 25.5,78.1659 26,5.5C 26.5133,4.47344 27.0133,3.47344 27.5,2.5 Z M 203.5,62.5 C 226.169,60.2533 243.669,68.5866 256,87.5C 268.954,115.857 262.787,139.024 237.5,157C 209.151,169.956 185.985,163.789 168,138.5C 155.593,111.859 160.759,89.3589 183.5,71C 189.888,67.2674 196.555,64.4341 203.5,62.5 Z"/></g>
<g><path style="opacity:0.933" fill="#93c11e" d="M 526.5,14.5 C 531.134,15.9028 535.301,18.2361 539,21.5C 539.79,24.634 539.457,27.634 538,30.5C 503.586,90.3305 468.919,149.997 434,209.5C 426.513,219.82 417.013,227.653 405.5,233C 404.5,233.667 403.5,233.667 402.5,233C 444.225,160.383 485.558,87.5496 526.5,14.5 Z"/></g>
<g><path style="opacity:0.914" fill="#93c11e" d="M 452.5,63.5 C 453.496,63.4142 454.329,63.7476 455,64.5C 457.632,69.9586 460.465,75.292 463.5,80.5C 457.865,94.4345 451.698,108.101 445,121.5C 443.5,119.167 442,116.833 440.5,114.5C 435.167,117.833 429.833,121.167 424.5,124.5C 424.167,124.167 423.833,123.833 423.5,123.5C 433.178,103.478 442.845,83.4781 452.5,63.5 Z"/></g>
<g><path style="opacity:0.907" fill="#235ba7" d="M 207.5,201.5 C 213.738,204.619 220.071,207.786 226.5,211C 232.696,212.973 239.029,214.306 245.5,215C 215.298,226.826 185.298,226.16 155.5,213C 150.126,210.319 145.126,207.152 140.5,203.5C 148.717,204.827 157.05,206.994 165.5,210C 181.214,214.891 195.214,212.058 207.5,201.5 Z"/></g>
<g><path style="opacity:0.862" fill="#235ba7" d="M 282.5,263.5 C 283.552,263.351 284.552,263.517 285.5,264C 290.088,269.621 295.755,270.954 302.5,268C 304.833,266.5 307.167,265 309.5,263.5C 311.833,265.167 313.833,267.167 315.5,269.5C 303.542,280.964 291.375,281.297 279,270.5C 278.626,269.584 278.126,268.75 277.5,268C 279.24,266.483 280.906,264.983 282.5,263.5 Z"/></g>
<g><path style="opacity:0.926" fill="#235ba7" d="M -0.5,280.5 C 2.5,280.5 5.5,280.5 8.5,280.5C 8.5,291.5 8.5,302.5 8.5,313.5C 11.1667,313.5 13.8333,313.5 16.5,313.5C 19.2673,293.733 30.6006,282.733 50.5,280.5C 67.7708,281.938 78.9375,290.938 84,307.5C 88.7377,328.659 81.571,344.159 62.5,354C 37.0597,359.08 21.3931,348.913 15.5,323.5C 13.2573,322.526 10.924,322.192 8.5,322.5C 8.5,333.5 8.5,344.5 8.5,355.5C 5.5,355.5 2.5,355.5 -0.5,355.5C -0.5,330.5 -0.5,305.5 -0.5,280.5 Z M 45.5,291.5 C 63.6511,291.313 73.6511,300.313 75.5,318.5C 73.8245,336.351 64.1579,345.184 46.5,345C 36.0089,342.509 29.5089,336.009 27,325.5C 24.6128,309.26 30.7795,297.927 45.5,291.5 Z"/></g>
<g><path style="opacity:0.971" fill="#235ba7" d="M 158.5,280.5 C 161.5,280.5 164.5,280.5 167.5,280.5C 167.5,287.833 167.5,295.167 167.5,302.5C 175.167,302.5 182.833,302.5 190.5,302.5C 190.5,295.5 190.5,288.5 190.5,281.5C 193.5,281.5 196.5,281.5 199.5,281.5C 199.5,306.167 199.5,330.833 199.5,355.5C 196.5,355.5 193.5,355.5 190.5,355.5C 190.5,340.833 190.5,326.167 190.5,311.5C 182.833,311.5 175.167,311.5 167.5,311.5C 167.5,326.167 167.5,340.833 167.5,355.5C 164.5,355.5 161.5,355.5 158.5,355.5C 158.5,330.5 158.5,305.5 158.5,280.5 Z"/></g>
<g><path style="opacity:0.919" fill="#235ba7" d="M 95.5,281.5 C 97.9099,281.921 99.7432,283.254 101,285.5C 106.667,293.5 112.333,301.5 118,309.5C 118.5,300.173 118.666,290.839 118.5,281.5C 121.5,281.5 124.5,281.5 127.5,281.5C 127.334,290.839 127.5,300.173 128,309.5C 134.5,300.333 141,291.167 147.5,282C 148.5,281.333 149.5,281.333 150.5,282C 152.208,284.043 154.208,285.71 156.5,287C 149.411,297.178 142.078,307.178 134.5,317C 141.637,328.302 148.97,339.469 156.5,350.5C 153.956,354.115 150.623,355.448 146.5,354.5C 140.333,344.833 134.167,335.167 128,325.5C 127.5,335.494 127.334,345.494 127.5,355.5C 124.5,355.5 121.5,355.5 118.5,355.5C 118.666,345.494 118.5,335.494 118,325.5C 111.5,335.333 105,345.167 98.5,355C 94.7466,355.123 91.7466,353.623 89.5,350.5C 96.8817,339.569 103.882,328.403 110.5,317C 103.383,307.272 96.3828,297.438 89.5,287.5C 91.215,285.118 93.215,283.118 95.5,281.5 Z"/></g>
<g><path style="opacity:0.937" fill="#235ba7" d="M 207.5,281.5 C 210.5,281.5 213.5,281.5 216.5,281.5C 216.168,290.525 216.502,299.525 217.5,308.5C 229.97,303.326 240.804,305.66 250,315.5C 254.28,322.563 255.613,330.23 254,338.5C 248.056,352.481 237.39,358.481 222,356.5C 217.171,356.042 212.338,355.709 207.5,355.5C 207.5,330.833 207.5,306.167 207.5,281.5 Z M 225.5,316.5 C 238.308,315.131 244.808,320.798 245,333.5C 244.004,339.159 240.838,342.993 235.5,345C 229.258,346.37 222.925,346.87 216.5,346.5C 216.334,338.826 216.5,331.159 217,323.5C 219.416,320.577 222.25,318.243 225.5,316.5 Z"/></g>
<g><path style="opacity:0.973" fill="#235ba7" d="M 258.5,281.5 C 261.5,281.5 264.5,281.5 267.5,281.5C 267.5,306.167 267.5,330.833 267.5,355.5C 264.5,355.5 261.5,355.5 258.5,355.5C 258.5,330.833 258.5,306.167 258.5,281.5 Z"/></g>
<g><path style="opacity:0.937" fill="#235ba7" d="M 273.5,281.5 C 276.5,281.5 279.5,281.5 282.5,281.5C 282.333,298.837 282.5,316.17 283,333.5C 291.5,316.5 300,299.5 308.5,282.5C 311.768,281.513 315.102,281.18 318.5,281.5C 318.825,298.744 318.492,315.91 317.5,333C 320.98,336.839 320.98,340.506 317.5,344C 318.46,347.73 318.793,351.563 318.5,355.5C 315.5,355.5 312.5,355.5 309.5,355.5C 309.207,351.563 309.54,347.73 310.5,344C 307.648,341.847 307.148,339.347 309,336.5C 309.667,325.5 309.667,314.5 309,303.5C 300.5,320.5 292,337.5 283.5,354.5C 280.232,355.487 276.898,355.82 273.5,355.5C 273.5,330.833 273.5,306.167 273.5,281.5 Z"/></g>
<g><path style="opacity:0.932" fill="#235ba7" d="M 362.5,281.5 C 365.5,281.5 368.5,281.5 371.5,281.5C 371.196,291.878 371.696,302.211 373,312.5C 377.495,322.333 384.662,324.833 394.5,320C 397.667,316.845 399.501,313.012 400,308.5C 400.5,299.506 400.666,290.506 400.5,281.5C 403.5,281.5 406.5,281.5 409.5,281.5C 409.952,301.887 409.452,322.221 408,342.5C 401.964,354.93 392.131,359.43 378.5,356C 370.441,354.14 366.441,349.306 366.5,341.5C 368.429,340.62 370.263,339.62 372,338.5C 374.461,340.961 376.961,343.461 379.5,346C 394.085,349.249 400.752,343.416 399.5,328.5C 392.791,331.383 385.791,332.216 378.5,331C 369.673,327.56 364.507,321.06 363,311.5C 362.5,301.506 362.334,291.506 362.5,281.5 Z"/></g>
<g><path style="opacity:0.945" fill="#235ba7" d="M 416.5,281.5 C 424.253,281.104 431.92,281.604 439.5,283C 454.398,292.789 457.565,305.623 449,321.5C 442.907,328.922 435.074,331.922 425.5,330.5C 425.5,338.833 425.5,347.167 425.5,355.5C 422.5,355.5 419.5,355.5 416.5,355.5C 416.5,330.833 416.5,306.167 416.5,281.5 Z M 426.5,290.5 C 436.783,290.794 442.783,295.961 444.5,306C 442.611,316.507 436.444,321.34 426,320.5C 425.193,310.423 425.36,300.423 426.5,290.5 Z"/></g>
<g><path style="opacity:0.908" fill="#235ba7" d="M 484.5,328.5 C 483.87,333.429 481.87,337.763 478.5,341.5C 475.768,338.384 473.268,335.051 471,331.5C 469.333,339.167 467.667,346.833 466,354.5C 462.943,355.451 459.777,355.784 456.5,355.5C 461.01,331.119 465.843,306.785 471,282.5C 475.737,281.531 480.57,281.197 485.5,281.5C 490.646,306.064 495.979,330.564 501.5,355C 497.848,355.499 494.182,355.665 490.5,355.5C 488.991,346.273 486.991,337.273 484.5,328.5 Z M 484.5,328.5 C 482.26,325.024 480.26,321.357 478.5,317.5C 475.806,321.554 473.639,325.888 472,330.5C 473.502,319.474 475.502,308.474 478,297.5C 480.997,307.651 483.164,317.985 484.5,328.5 Z"/></g>
<g><path style="opacity:0.917" fill="#235ba7" d="M 520.5,281.5 C 525.167,281.5 529.833,281.5 534.5,281.5C 539.646,306.064 544.979,330.564 550.5,355C 546.848,355.499 543.182,355.665 539.5,355.5C 535.779,336.063 531.613,316.729 527,297.5C 523.128,316.528 519.128,335.528 515,354.5C 511.943,355.451 508.777,355.784 505.5,355.5C 509.992,330.704 514.992,306.037 520.5,281.5 Z"/></g>
<g><path style="opacity:0.835" fill="#235ba7" d="M 385.5,288.5 C 388.719,292.435 391.052,296.935 392.5,302C 391.116,305.876 389.116,309.376 386.5,312.5C 384.004,309.159 381.671,305.659 379.5,302C 381.793,297.618 383.793,293.118 385.5,288.5 Z"/></g>
<g><path style="opacity:0.875" fill="#235ba7" d="M 50.5,300.5 C 53.9968,306.16 56.9968,312.16 59.5,318.5C 56.9179,323.333 54.0845,328 51,332.5C 47.3077,328.148 44.4744,323.315 42.5,318C 44.7633,311.974 47.43,306.141 50.5,300.5 Z"/></g>
</svg>
