<?xml version="1.0" encoding="utf-8"?>
<!-- Generator: Adobe Illustrator 26.0.3, SVG Export Plug-In . SVG Version: 6.00 Build 0)  -->
<svg version="1.1" id="Слой_1" xmlns="http://www.w3.org/2000/svg" xmlns:xlink="http://www.w3.org/1999/xlink" x="0px" y="0px"
	 viewBox="0 0 31.9 30.5" style="enable-background:new 0 0 31.9 30.5;" xml:space="preserve">
<style type="text/css">
	.st0{fill:#FFFFFF;}
</style>
<path class="st0" d="M20.1,13.1L20.1,13.1c-0.1-0.1-0.1-0.2-0.2-0.3c0,0,0-0.1,0-0.1c-0.2-0.3-0.5-0.7-0.7-1
	c-0.1-0.1-0.1-0.2-0.2-0.3l-0.4-0.6c-0.2-0.3-0.3-0.5-0.5-0.8c-0.2-0.3-0.5-0.7-0.7-1.1c-0.1-0.1-0.2-0.3-0.3-0.4
	c-0.1-0.1-0.2-0.3-0.3-0.5c-0.4-0.7-0.9-1.3-1.3-2c-0.1-0.1-0.2-0.3-0.3-0.4C15.2,5.5,15,5.2,14.9,5c-0.1-0.2-0.4-0.6-0.6-0.9
	s-0.5-0.7-0.7-1l-0.3-0.5c-0.1-0.1-0.2-0.3-0.3-0.4s-0.3-0.5-0.5-0.7c-0.2-0.2-0.5-0.8-0.8-1.1c-0.2,0-0.3,0.2-0.4,0.3L11,1.3
	l-0.6,0.8l-0.1,0.2l-0.7,1c0,0.1-0.1,0.2-0.2,0.2C9.4,3.7,9.3,4,9.1,4.2L8.6,4.8c0,0.1-0.1,0.2-0.2,0.2C8.3,5.3,8.1,5.6,7.9,5.9
	L7.6,6.3C7.5,6.5,7.4,6.7,7.2,6.9C7.1,7,6.9,7.4,6.7,7.7c0,0.1-0.1,0.1-0.1,0.2C6.4,8.2,6.2,8.5,6,8.8L5.8,9.1L5.3,9.8l-0.5,0.7
	c0,0.1-0.1,0.2-0.1,0.2l-0.6,0.9c-0.1,0.1-0.1,0.2-0.2,0.3c-0.2,0.2-0.3,0.4-0.4,0.6c-0.2,0.2-0.4,0.6-0.6,0.9l0,0l-0.6,1L2,14.8
	l-0.4,0.6c-0.2,0.2-0.3,0.5-0.5,0.7c0,0.1-0.1,0.2-0.2,0.2l-0.6,0.9c-0.1,0.1-0.1,0.2-0.2,0.3c-0.1,0.1-0.1,0.2-0.2,0.3v12.3
	l0.1,0.1c0.3,0,0.6,0,1,0s0.6,0,1,0s0.6,0,1,0s0.6,0,1,0s0.6,0,1,0c0.3,0,0.6,0,1,0s0.6,0,1,0s0.6,0,1,0s0.6,0,1,0h0.4L20.1,13.1z
	 M2.9,17.1l8.8-13.4l5.6,8.5l-3.6,0.4L13,17.9L8.7,13L2.9,17.1z"/>
<path class="st0" d="M30.8,18.2c-0.1-0.2-0.2-0.3-0.3-0.5l-0.3-0.4l-0.6-0.8c-0.1-0.1-0.1-0.2-0.2-0.2l-0.5-0.8l-0.4-0.6l-0.2-0.3
	c-0.2-0.3-0.4-0.6-0.6-1l-0.1-0.1c-0.2-0.3-0.4-0.6-0.6-0.9c-0.2-0.3-0.2-0.3-0.3-0.5c-0.1-0.2-0.2-0.3-0.3-0.4
	c-0.2-0.3-0.4-0.6-0.6-0.9l-0.1-0.2c-0.2-0.3-0.4-0.5-0.6-0.8c0,0-0.1,0-0.1,0L11.8,30.2h0.7c0.3,0,0.6,0,1,0c0.3,0,0.6,0,1,0
	c0.3,0,0.6,0,1,0c0.4,0,0.6,0,1,0s0.6,0,1,0c0.4,0,0.6,0,1,0c0.4,0,0.6,0,1,0c0.4,0,0.6,0,1,0c0.4,0,0.6,0,1,0c0.4,0,0.6,0,1,0
	c0.4,0,0.6,0,1,0c0.3,0,0.6,0,1,0s0.6,0,1,0s0.6,0,1,0s0.6,0,1,0s0.6,0,1,0s0.6,0,1,0s0.6,0,1,0s0.6,0,1,0c0.3,0,0.6,0,0.9-0.1V19
	C31.1,18.7,30.9,18.5,30.8,18.2z M26.3,20L24,22.7l-0.7-3.9l-2.7,0.9l4.4-6.7l6.2,9.4L26.3,20z"/>
</svg>
