<?xml version="1.0" encoding="utf-8"?>
<!-- Generator: Adobe Illustrator 26.0.3, SVG Export Plug-In . SVG Version: 6.00 Build 0)  -->
<svg version="1.1" id="Слой_1" xmlns="http://www.w3.org/2000/svg" xmlns:xlink="http://www.w3.org/1999/xlink" x="0px" y="0px"
	 viewBox="0 0 32 27" style="enable-background:new 0 0 32 27;" xml:space="preserve">
<style type="text/css">
	.st0{fill:#FFFFFF;}
</style>
<path class="st0" d="M6.8,9l4.1,4.1L14.4,26l-7.2,1c0.4-1,0.4-2,0.1-3c-0.4-1.3-1.3-2-2.9-3.2C3.3,19.9,1.8,18.7,0,17
	c1.5,0.2,2-0.3,2.2-0.4c0.9-0.9,0.6-3.3-1.4-5.7l5.1,0.8L6.8,9z"/>
<path class="st0" d="M25.2,9l-4.1,4.1L17.6,26l7.2,1c-0.4-1-0.4-2-0.1-3c0.4-1.3,1.3-2,2.9-3.2c1.1-0.9,2.6-2.1,4.4-3.8
	c-1.5,0.2-2-0.3-2.2-0.4c-0.9-0.9-0.6-3.3,1.4-5.7l-5,0.8L25.2,9z"/>
<path class="st0" d="M18.9,5c-0.5-0.3-0.7-0.8-1.5-2.4c-0.6-1.1-1.1-2-1.4-2.6c-0.3,0.5-0.8,1.5-1.4,2.6c-0.8,1.6-1,2.1-1.5,2.4
	c-0.3,0.2-1.3,0.6-3.3-0.5L16,27l6.2-22.5C20.2,5.6,19.2,5.2,18.9,5z M16,23l-3.2-11.5l1.6-1.9l0.7,0.6l3-4.1l1.6,2.3L16,23z"/>
</svg>
