<?xml version="1.0" encoding="utf-8"?>
<!-- Generator: Adobe Illustrator 26.0.3, SVG Export Plug-In . SVG Version: 6.00 Build 0)  -->
<svg version="1.1" id="Слой_1" xmlns="http://www.w3.org/2000/svg" xmlns:xlink="http://www.w3.org/1999/xlink" x="0px" y="0px"
	 viewBox="0 0 25.5 32" style="enable-background:new 0 0 25.5 32;" xml:space="preserve">
<style type="text/css">
	.st0{fill:#FFFFFF;}
</style>
<path class="st0" d="M12.6,32c-1,0-1.9-0.1-2.8-0.4c-2.5-0.7-4.7-2.2-6.4-4.3c-1.5-1.7-2.6-3.7-3.1-5.8c-0.7-3.4-0.1-7,1.8-10
	C1.7,9.6,2,7.6,2.9,5.9C3,5.8,3,5.7,3.1,5.6c0.3-0.4,0.5-0.8,0.7-1.3C4,3.9,4.1,3.5,4.2,3.1C4.5,2,5,1,5.8,0.2L6.1,0l0.3,0.2
	c1,0.5,1.8,1.3,2.3,2.2C8.8,2.7,8.9,2.9,9,3.2c0.1,0.3,0.2,0.7,0.4,1c0.2,0.5,0.5,1,0.9,1.5c0.8-0.2,1.6-0.3,2.5-0.3
	c0.8,0,1.6,0.1,2.4,0.2l0.5-0.1c0.4-1,0.8-2,1.4-3c0.7-1.2,1.4-2.5,2.5-2.4c0.4,0.1,0.7,0.3,0.9,0.6l0.1,0.1v0.1
	c0.4,1.1,0.8,2.2,1.2,3.3c0.3,0.7,0.5,1.2,0.8,1.6c0.5,0.8,0.8,1.6,1,2.5c0.2,1.1,0.3,2.2,0.1,3.3c1.8,2.9,2.5,6.3,1.9,9.7
	c-0.5,2.4-1.7,4.6-3.4,6.4c-1.3,1.5-2.8,2.6-4.6,3.4C15.8,31.7,14.2,32,12.6,32z M6.2,1.2C6,1.4,5.8,1.7,5.6,2
	C5.4,2.5,5.2,2.9,5.1,3.4C5,3.8,4.9,4.3,4.7,4.7c-0.2,0.5-0.5,1-0.8,1.4L3.7,6.4c-0.8,1.2-1,2.9-0.6,5.1v0.2l-0.1,0.1
	c-1.8,2.8-2.4,6.2-1.7,9.5c0.5,2,1.5,3.9,2.9,5.4c1.5,1.9,3.6,3.3,5.9,4c2.3,0.6,4.7,0.4,6.8-0.5c1.7-0.7,3.1-1.8,4.3-3.2
	c1.6-1.7,2.7-3.7,3.2-6c0.6-3.1-0.1-6.4-1.8-9l-0.1-0.2v-0.2c0.2-1,0.2-2.1,0-3.1c-0.2-0.8-0.5-1.6-0.9-2.3c-0.2-0.5-0.5-1-0.8-1.7
	c-0.5-1.1-0.9-2.2-1.3-3.3c0-0.1-0.1-0.1-0.2-0.2c-0.1,0-0.3,0.1-0.6,0.5C18.3,2,18,2.5,17.7,3c-0.6,0.9-1,2-1.4,3l-0.1,0.2L15,6.6
	h-0.1c-0.8-0.2-1.5-0.2-2.3-0.2c-0.9,0-1.7,0.1-2.5,0.3L9.8,6.7L9.6,6.5C9.1,5.9,8.7,5.3,8.4,4.6C8.3,4.2,8.2,3.9,8,3.5
	C8,3.3,7.9,3,7.8,2.8C7.4,2.1,6.9,1.6,6.2,1.2z"/>
<path class="st0" d="M24.5,22.9c-0.2,0-0.4-0.1-0.4-0.3c-0.7-3.1-1.5-4-2.1-4.2h-0.1c-0.6-0.1-1.2-0.5-1.5-1
	c-0.2-0.4-0.3-0.8-0.2-1.2c0.2-1.1-0.2-2.2-0.9-3.1c-0.6-0.8-1.6-1.2-2.6-1.3c-2,0.1-3.6,1.7-3.7,3.7c0,0.2-0.2,0.4-0.4,0.4
	c-0.2,0-0.4-0.2-0.4-0.4c-0.1-2-1.8-3.5-3.7-3.6c-1.3,0.1-2.5,0.9-3.1,2.2c-0.1,0.2-0.4,0.3-0.6,0.2c-0.2-0.1-0.3-0.4-0.2-0.6
	c0,0,0,0,0,0c0.7-1.5,2.2-2.5,3.9-2.6c1.8,0,3.4,1.1,4.1,2.8c0.7-1.7,2.2-2.8,4-2.9h0.1c1.2,0.1,2.4,0.6,3.2,1.6
	c0.9,1,1.3,2.4,1.1,3.7c-0.1,0.2,0,0.4,0.1,0.6c0.2,0.3,0.6,0.5,1,0.5h0.1c1.2,0.3,2.1,1.9,2.7,4.8C24.9,22.6,24.8,22.8,24.5,22.9
	L24.5,22.9z"/>
<path class="st0" d="M0.7,21.5H0.6c-0.2-0.1-0.3-0.3-0.2-0.5c0,0,0,0,0,0c0.4-1.3,1.2-2.4,2.3-3.2l0.2-0.1c0.4-0.2,0.7-0.4,1-0.8
	c0.3-0.4,0.4-0.9,0.4-1.4c0-0.2,0.2-0.4,0.4-0.4c0.2,0,0.4,0.2,0.4,0.4c0,0,0,0,0,0c0,0.7-0.1,1.4-0.5,1.9c-0.3,0.4-0.8,0.8-1.2,1
	l-0.2,0.1c-1,0.7-1.7,1.6-2,2.7C1.1,21.4,0.9,21.6,0.7,21.5z"/>
<circle class="st0" cx="8.6" cy="15.5" r="1.1"/>
<circle class="st0" cx="16.9" cy="15.5" r="1.1"/>
<path class="st0" d="M14.8,22.2c-0.2,1.1-1.2,1.8-2.3,1.7c-0.9-0.1-1.6-0.8-1.7-1.7c0-0.4,0.1-0.9,0.4-1.2c0.4-0.4,1-0.5,1.5-0.5
	c0.5-0.1,1.1,0,1.5,0.3C14.6,21.2,14.8,21.7,14.8,22.2z"/>
<path class="st0" d="M17.6,23.5c0,0-0.1,0-0.1,0c-0.2-0.1-0.3-0.3-0.3-0.5c0,0,0,0,0,0l0.7-1.9c0.1-0.2,0.3-0.3,0.5-0.2
	c0.2,0.1,0.3,0.3,0.2,0.5L18,23.3C17.9,23.5,17.8,23.5,17.6,23.5z"/>
<path class="st0" d="M7.1,30.3c-0.2,0-0.4-0.2-0.4-0.4l0,0v-2c0-0.2,0.3-0.4,0.5-0.4c0.2,0,0.3,0.2,0.4,0.4v2
	C7.5,30.1,7.4,30.3,7.1,30.3C7.1,30.3,7.1,30.3,7.1,30.3z"/>
<path class="st0" d="M8.4,31.1c-0.2,0-0.4-0.2-0.4-0.4l0,0v-1.5c0-0.2,0.2-0.4,0.4-0.4s0.4,0.2,0.4,0.4v1.5
	C8.9,30.9,8.7,31.1,8.4,31.1L8.4,31.1z"/>
<path class="st0" d="M17.2,24.1c-0.2-0.1-0.5-0.1-0.6,0.1c-0.3,0.5-0.7,0.8-1.2,1c-0.9,0.2-1.8,0-2.4-0.6l-0.3-0.2l-0.3,0.2
	c-0.6,0.5-1.4,0.7-2.2,0.6c-0.4-0.1-0.7-0.2-1-0.4c-1.5-1-1.5-3.5-1.5-3.8c0,0,0,0,0,0c0-0.2-0.2-0.4-0.4-0.4c0,0,0,0,0,0
	C7.1,20.6,7,20.7,7,21c0,0.5,0,3.3,1.9,4.5c0.3,0.2,0.6,0.3,0.9,0.4c-0.2,0.8-0.1,1.6,0.2,2.4c0.5,1.1,1.4,1.9,2.5,2.3l0.1,0l0.1,0
	c0.5,0,0.9-0.2,1.4-0.4c1.2-0.7,1.9-2.3,1.8-4.2c0,0,0,0,0,0c0.7-0.3,1.3-0.7,1.6-1.3C17.5,24.5,17.4,24.2,17.2,24.1z M13.5,29.3
	c-0.3,0.1-0.5,0.2-0.8,0.3c-0.8-0.3-1.5-0.9-1.8-1.7c-0.2-0.6-0.3-1.2-0.1-1.8c0.6,0,1.1-0.1,1.6-0.4v1.7c0,0.3,0.2,0.5,0.5,0.5
	c0,0,0,0,0,0c0.3,0,0.5-0.2,0.4-0.5v-1.6c0.5,0.2,1,0.4,1.5,0.4C14.8,27.6,14.3,28.8,13.5,29.3z"/>
<path class="st0" d="M22.9,11.5c0.2-0.9,0.2-1.9,0-2.9c-0.3-1.5-0.9-2.3-1.8-4.2c-0.5-1.1-1-2.3-1.4-3.5c-0.1-0.2-0.3-0.3-0.5-0.4
	c-0.4-0.1-0.9,0.6-2.3,3c-0.5,0.9-0.9,1.7-1.2,2.3c-1-0.1-2.1-0.1-3.1-0.1c-0.9,0-1.8,0.1-2.7,0.3l-1.9-4L6.3,0.6
	c-0.4,0.2-0.8,0.6-0.9,1c0,0.1,0,0.1,0,0.2c-0.2,1-0.5,1.9-1,2.7C4.2,4.8,4,5.1,3.7,5.6C3.6,5.7,3.4,5.9,3.3,6C2.8,7,2.5,8,2.4,9.1
	c-0.1,0.8,0,1.7,0.1,2.5c-0.6,1-1.1,2-1.4,3.1c-0.6,2-0.7,4.1-0.3,6.2c0.2-0.6,0.5-1.2,0.9-1.7c0.6-0.7,0.9-0.6,1.9-1.5
	C4.5,16.9,5,16.4,5,15.7c0-0.3,0-0.5,0.1-1c0.1-0.3,0.2-0.7,0.3-0.9c0,0,0.1-0.2,0.2-0.4c0.5-1,1.4-1.7,2.5-2c1.8-0.2,3.2,1.5,3.7,2
	c0.3,0.3,0.5,0.6,0.7,1c0.7-2.3,3.2-3.5,5.4-2.7c0.1,0,0.1,0,0.2,0.1c1.4,0.6,2.4,1.9,2.5,3.5c0,0.6-0.3,1.1,0,1.7
	c0.1,0.2,0.3,0.5,1.1,1c0.8,0.5,1.3,0.7,1.6,0.9c0.6,0.4,1.1,1.3,1,3.7c0.4-1,0.6-2.1,0.7-3.2C25.2,16.5,24.4,13.8,22.9,11.5z
	 M7.9,6.2C7.8,6.4,7.8,6.6,7.6,6.7C6.8,7.6,6.2,7.4,5.5,8.1C5.4,8.2,5.1,8.4,4.9,8.4c-0.1,0-0.1-0.1-0.1-0.1c-0.1-0.5,0-1,0.1-1.5
	C5,6.4,5.1,6,5.3,5.6C5.9,4.5,5.9,4.7,6,4.3C6,4.1,6.1,4,6.3,3.8c0.1-0.1,0.2-0.1,0.4-0.1C7,4.2,7.3,4.7,7.5,5
	C7.8,5.6,8,5.9,7.9,6.2z M20.7,8.2c0,0.1-0.1,0.1-0.2,0.1c-0.2,0.1-0.5-0.2-0.5-0.3c-0.7-0.7-1.3-0.5-2.1-1.4
	c-0.1-0.1-0.2-0.3-0.3-0.5C17.5,5.9,17.6,5.6,18,5c0.2-0.3,0.5-0.8,0.8-1.3c0.1,0,0.2,0,0.3,0.1c0.2,0.1,0.3,0.3,0.3,0.5
	c0.1,0.4,0.1,0.1,0.7,1.3c0.2,0.4,0.4,0.8,0.5,1.2C20.7,7.2,20.8,7.8,20.7,8.2z"/>
</svg>
