<?xml version="1.0" encoding="utf-8"?>
<!-- Generator: Adobe Illustrator 26.0.1, SVG Export Plug-In . SVG Version: 6.00 Build 0)  -->
<svg version="1.1" id="Слой_1" xmlns="http://www.w3.org/2000/svg" xmlns:xlink="http://www.w3.org/1999/xlink" x="0px" y="0px"
	 viewBox="0 0 66 48" style="enable-background:new 0 0 66 48;" xml:space="preserve">
<style type="text/css">
	.st0{fill:#FFFFFF;}
</style>
<path class="st0" d="M23.3,0.1c-2-0.1-3-0.1-3.8,0.1c-3.3,1.3-5.6,6.8-4,11.3c0,0,0,0,0,0.1c1.2,3.1,4.4,4.9,7.7,4.7
	c0.8-0.1,1.6-0.1,2.4-0.1c6.4-0.1,9.3,1.4,10.8-0.2c0.6-0.7,0.5-2.3,0.5-5.6c0-0.5,0-1,0-1.4c-0.1-3.1-2.1-5.8-4.9-7
	c-0.6-0.3-1.2-0.5-1.9-0.7C27.9,0.5,25.6,0.1,23.3,0.1z"/>
<path class="st0" d="M38.6,8.9c-0.1,0.7,0,1.4,0.4,2c1,2.1,3.3,2.9,4.4,3.2c1.1,0.4,2.3,0.6,3.5,0.4c2.1-0.4,4.6-2.3,4.5-4.3
	c-0.2-2.3-3.9-3.4-5.6-3.6C42.9,6.1,39.2,6.9,38.6,8.9z"/>
<path class="st0" d="M19.6,19.1c0-0.8,4.5-1.7,8.7-1.1c1.6,0.2,3.1,0.6,4.5,1.2c0.8,0.3,0.7,1.5-0.2,1.7c-1.9,0.2-3.7,0.3-5.6,0.2
	C23.9,20.7,19.6,19.9,19.6,19.1z"/>
<path class="st0" d="M44.4,16.2c-1.2,0-4.2-0.1-6.2,1.8c-0.4,0.3-0.7,0.8-0.9,1.3c-0.7,2,1.5,4.5,2.8,5.6c1.9,1.5,4.2,1.6,8.8,1.9
	c4.6,0.1,9.2-0.6,13.6-2c0.7-0.2,1.3-0.6,1.6-1.2c0.3-0.8,0.2-1.7-0.2-2.4C61.9,16.9,47.9,16.4,44.4,16.2z"/>
<path class="st0" d="M18.6,23.1c1.3-1.3,2.6,0,8.5-0.4c3.3-0.2,4.9-0.8,7.3,0.1c0.3,0.1,0.7,0.3,1,0.4c0.9,0.5,0.8,1.8-0.1,2.2
	c-1.5,0.5-3.3,1.3-5.4,2.1c-6.6,2.9-8.6,4.5-10.4,3.6C17.4,29.8,16.8,25,18.6,23.1z"/>
<path class="st0" d="M45.1,29.4c-0.2,1,2.6,2.4,4.5,3c1.5,0.5,2.9,0.9,4.5,0.3c1.9-0.8,3.5-2.9,3-4s-2.9-0.8-7.3-0.4
	C46.8,28.6,45.2,28.7,45.1,29.4z"/>
<path class="st0" d="M55.8,34.6c0.1-0.7,0.4-1.3,0.9-1.7c1-1.1,3.4-2.5,5.8-1.5c1.4,0.7,2.4,2.1,2.7,3.6c0.3,2-0.6,4.5-2,4.8
	c-0.7,0.2-1-0.3-3.9-2.3C56.9,36,55.9,35.6,55.8,34.6z"/>
<path class="st0" d="M48.8,33.8c-1.9-0.3-3.9,0-5.5,1c-0.5,0.3-0.6,0.5-2,2.1c-3.7,4.2-4.4,4.9-4.8,6.3c-0.2,0.4-0.2,0.8-0.3,1.2
	c-0.1,1.6,0.9,3,2.4,3.3c0,0,0,0,0,0h27.1c0-0.5,0-1-0.2-1.5c-0.5-1-1.3-1.9-2.3-2.4c-3.1-1.7-2.7-3-9.4-7.5
	C50.6,34.2,49.6,33.9,48.8,33.8z"/>
<path class="st0" d="M11,36c0.3-0.5,0.8-0.9,1.3-1.2c1-0.5,2.1-0.8,3.1-0.7c3.4,0.2,6.8-0.2,10-1c2.9-0.9,2.2-1.7,7.3-3.9
	c1.8-0.9,3.8-1.4,5.9-1.3c0.7,0,3.6,0.2,4.2,1.8c0.2,0.5,0.1,1.1-0.1,1.6c-1.2,3.3-7.2,7.8-8.4,8.7l-22.2,1.4
	C10.7,39.5,10.2,37.3,11,36z"/>
<path class="st0" d="M17.4,44c-0.2,0.7,1.1,1.8,1.9,2.5c0.7,0.6,1.6,1.1,2.4,1.4c0.3,0.1,0.6,0.1,0.9,0.1l9.8-0.1
	c1.4,0,2.6-1.2,2.4-2.6c0,0,0,0,0,0c0-0.7-0.3-1.4-0.6-2.1c-1.1-1.5-4.1-0.4-9.9,0C20,43.4,17.6,43.1,17.4,44z"/>
<path class="st0" d="M12.9,43.6c-1-0.2-2.1-0.2-3.1,0c-7.2,1.1-9.6,1.2-9.7,2.1c0,0.4,0.5,1,0.6,1.1c0.5,0.4,1.1,0.7,1.7,0.7
	c6.4,0.8,9.1,0.7,12.4-0.1c1.1-0.2,1.8-0.4,1.9-0.9C17,45.6,15,44.1,12.9,43.6z"/>
</svg>
