<?xml version="1.0" encoding="utf-8"?>
<!-- Generator: Adobe Illustrator 26.0.1, SVG Export Plug-In . SVG Version: 6.00 Build 0)  -->
<svg version="1.1" id="Слой_1" xmlns="http://www.w3.org/2000/svg" xmlns:xlink="http://www.w3.org/1999/xlink" x="0px" y="0px"
	 viewBox="0 0 66 53.5" style="enable-background:new 0 0 66 53.5;" xml:space="preserve">
<style type="text/css">
	.st0{fill:#FFFFFF;}
</style>
<path class="st0" d="M27.3,12c0.4-0.1,0.9-0.2,1.4,0c1,0.3,1.4,1.3,1.6,1.7c1,2,2.7,4.6,4.2,5.9c0.8,0.7,1.9,1,3.9,1.6
	c3.3,1,6.2,1.1,9.8,1.3c2.6,0.1,2.6,0,4,0.2c2.8,0.3,5.1,1.1,6.5,1.7c0.1-0.2,0.2-0.4,0.2-0.5c0.2-1.1-0.8-2.5-2.5-3.5
	c-0.4,0.1-1,0.1-1.6,0.1c-1.2,0-2.1-0.3-2.4-0.4c-1-0.3-2.6-0.6-5.2-0.9c0.3-0.3,0.7-0.8,1.3-1.4c1.9-1.8,3.4-1.9,5.5-3.4
	c1-0.7,1.6-1.4,2.4-2.3c1.1-1.2,2.4-3,3.6-5.5c-0.1-0.5-0.2-1.1,0.1-1.8c0.2-0.4,0.5-0.6,0.8-0.9c0.4-0.4,0.8-1.1,0.9-2.2
	C59.9,3,58.2,4,57,4.7c-5,3-8.8,4.8-9.8,5.3c-1.8,0.9-3.4,1.5-4.5,2c-0.1-0.2-0.2-0.6-0.4-1.1c-0.4-1.2-0.4-2-0.5-2.7
	c-0.3-1.9-0.9-1.8-1.5-3.9c-0.4-1.6-0.3-2.6-0.7-2.7c-0.3-0.1-0.7,0.4-1.3,1.5c-1.2,2.1-1.5,3.9-2.2,6.2c-0.2,0.8-0.6,2.1-1.2,3.5
	c-0.9-1-1.5-1.7-1.9-2.1c-1-1.2-1.5-1.7-2.2-1.8c-0.5-0.1-0.9,0.1-1.2,0.3C28.1,9.9,27.5,11.5,27.3,12z"/>
<path class="st0" d="M6.4,9.7c0.9,0.5,2.2,1.2,4,2.1c2.4,1.3,3.2,1.7,4.5,2c1.2,0.3,2.3,0.4,3,0.4c0.1,0,0.4-0.1,0.6-0.3
	c0.3-0.3,0.2-1-0.3-1.4c0.2-0.2,0.5-0.5,0.9-0.6c0.8,0,1.4,1.1,1.5,1.4c0.9,1.9-0.5,4.2-0.8,4.6c1,3.5,2,7.1,3.1,10.6
	c-0.5-0.4-1.2-0.9-2.1-1.5c-1.3-1-2-1.5-2.5-2c-1.3-1.3-2-2.6-2.3-3.2c-0.3-0.7-0.5-1.3-0.7-1.8c-0.3,0-0.7,0-1.2-0.1
	c-0.9,0-2.7,0-4.5,0.4c-1,0.2-2.7,0.7-4.6,2c-0.3-0.4-0.6-0.8-0.9-1.3c-0.5-0.8-0.8-1.5-1.1-2.2c1.2,0.5,2.9,0.9,5,0.6
	c0.7-0.1,2.1-0.3,3.6-1.4c0.4-0.3,0.7-0.5,0.9-0.7c-0.7-0.4-1.5-1-2.4-1.7C7.8,13.6,6.8,11.1,6.4,9.7z"/>
<path class="st0" d="M62.2,37.6c-2,0-3.6-0.5-5-1.4c-1.2-0.8-1.8-1.7-2.4-2.5c-0.6-0.9-1.1-1.5-2-1.8c-1.2-0.4-2.3-0.1-2.6,0
	c-1.5,0.4-2.2,1.3-3.1,2.4c-0.9,1.2-2,2.5-4,2.7c-0.1,0-0.1,0-0.2,0c-1.4,0.2-2.9,0.2-6.2-3c-1.2-1.2-2.1-2.1-4.1-2.1
	c-1.7,0-2.9,1-4.3,2.2c-1.6,1.4-3.4,3-6.2,2.8c-2.3-0.1-3.8-1.5-5.1-2.8c-1.3-1.2-2.4-2.2-4.3-2.3l0,0c-1.7,0-3.1,0.7-3.1,0.7
	c-0.8,0.4-1.4,1-2.1,1.6c-1,1-2.1,2-4,2.4c-0.6,0.1-1.3,0.2-2,0.1c-0.9-0.1-1.5-0.8-1.4-1.7s0.8-1.5,1.7-1.4c0.4,0,0.7,0,1.1,0
	c1-0.2,1.6-0.8,2.5-1.6C6,31.3,6.8,30.5,8,29.8c0.2-0.1,2.1-1,4.6-1c3.1,0,5,1.7,6.4,3.1c1.2,1.1,2,1.8,3.2,1.9c1.5,0.1,2.5-0.7,4-2
	c1.6-1.4,3.4-3,6.3-3c3.2,0,4.9,1.6,6.3,2.9c2.4,2.3,3.1,2.2,3.5,2.1c0.2,0,0.3,0,0.4-0.1c0.6-0.1,1-0.5,1.9-1.6
	c1-1.2,2.3-2.8,4.7-3.5c1.6-0.4,3.1-0.4,4.4,0.1c1.8,0.6,2.7,1.9,3.5,2.9c0.5,0.7,1,1.3,1.7,1.8c1.2,0.8,3,1.1,5.2,0.7
	c0.8-0.1,1.7,0.4,1.8,1.3c0.1,0.8-0.4,1.7-1.3,1.8C63.8,37.5,63,37.6,62.2,37.6z"/>
<path class="st0" d="M62.2,45.5c-2,0-3.6-0.5-5-1.4c-1.2-0.8-1.8-1.7-2.4-2.5c-0.6-0.9-1.1-1.5-2-1.8c-1.2-0.4-2.3-0.1-2.6,0
	c-1.5,0.4-2.2,1.3-3.1,2.4c-0.9,1.2-2,2.5-4,2.7c-0.1,0-0.1,0-0.2,0c-1.4,0.2-2.9,0.2-6.2-3c-1.2-1.2-2.1-2.1-4.1-2.1
	c-1.7,0-2.9,1-4.3,2.2c-1.6,1.4-3.4,3-6.2,2.8c-2.3-0.1-3.8-1.5-5.1-2.8c-1.3-1.2-2.4-2.2-4.3-2.3l0,0c-1.7,0-3.1,0.7-3.1,0.7
	c-0.8,0.4-1.4,1-2.1,1.6c-1,1-2.1,2-4,2.4c-0.6,0.1-1.3,0.2-2,0.1c-0.9-0.1-1.5-0.8-1.4-1.7s0.8-1.5,1.7-1.4c0.4,0,0.7,0,1.1,0
	c1-0.2,1.6-0.8,2.5-1.6c0.6-0.6,1.4-1.4,2.6-2c0.2-0.1,2.1-1,4.6-1c3.1,0,5,1.7,6.4,3.1c1.2,1.1,2,1.8,3.2,1.9c1.5,0.1,2.5-0.7,4-2
	c1.6-1.4,3.4-3,6.3-3c3.2,0,4.9,1.6,6.3,2.9c2.4,2.3,3.1,2.2,3.5,2.1c0.2,0,0.3,0,0.4-0.1c0.6-0.1,1-0.5,1.9-1.6
	c1-1.2,2.3-2.8,4.7-3.5c1.6-0.4,3.1-0.4,4.4,0.1c1.8,0.6,2.7,1.9,3.5,2.9c0.5,0.7,1,1.3,1.7,1.8c1.2,0.8,3,1.1,5.2,0.7
	c0.8-0.1,1.7,0.4,1.8,1.3c0.1,0.8-0.4,1.7-1.3,1.8C63.8,45.5,63,45.5,62.2,45.5z"/>
<path class="st0" d="M62.2,53.5c-2,0-3.6-0.5-5-1.4c-1.2-0.8-1.8-1.7-2.4-2.5c-0.6-0.9-1.1-1.5-2-1.8c-1.2-0.4-2.3-0.1-2.6,0
	c-1.5,0.4-2.2,1.3-3.1,2.4c-0.9,1.2-2,2.5-4,2.7c-0.1,0-0.1,0-0.2,0c-1.4,0.2-2.9,0.2-6.2-3c-1.2-1.2-2.1-2.1-4.1-2.1
	c-1.7,0-2.9,1-4.3,2.2c-1.6,1.4-3.4,3-6.2,2.8c-2.3-0.1-3.8-1.5-5.1-2.8c-1.3-1.2-2.4-2.2-4.3-2.3l0,0c-1.7,0-3.1,0.7-3.1,0.7
	c-0.8,0.4-1.4,1-2.1,1.6c-1,1-2.1,2-4,2.4c-0.6,0.1-1.3,0.2-2,0.1c-0.9-0.1-1.5-0.8-1.4-1.7s0.8-1.5,1.7-1.4c0.4,0,0.7,0,1.1,0
	c1-0.2,1.6-0.8,2.5-1.6C6,47.1,6.8,46.3,8,45.7c0.2-0.1,2.1-1.1,4.6-1c3.1,0,5,1.7,6.4,3.1c1.2,1.1,2,1.8,3.2,1.9
	c1.5,0.1,2.5-0.7,4-2c1.6-1.4,3.4-3,6.3-3c3.2,0,4.9,1.6,6.3,2.9c2.4,2.3,3.1,2.2,3.5,2.1c0.2,0,0.3,0,0.4-0.1
	c0.6-0.1,1-0.5,1.9-1.6c1-1.2,2.3-2.8,4.7-3.5c1.6-0.4,3.1-0.4,4.4,0.1c1.8,0.6,2.7,1.9,3.5,2.9c0.5,0.7,1,1.3,1.7,1.8
	c1.2,0.8,3,1.1,5.2,0.7c0.8-0.1,1.7,0.4,1.8,1.3c0.1,0.8-0.4,1.7-1.3,1.8C63.8,53.4,63,53.5,62.2,53.5z"/>
</svg>
