<?xml version="1.0" encoding="utf-8"?>
<!-- Generator: Adobe Illustrator 26.0.1, SVG Export Plug-In . SVG Version: 6.00 Build 0)  -->
<svg version="1.1" id="Слой_1" xmlns="http://www.w3.org/2000/svg" xmlns:xlink="http://www.w3.org/1999/xlink" x="0px" y="0px"
	 viewBox="0 0 66 29.6" style="enable-background:new 0 0 66 29.6;" xml:space="preserve">
<style type="text/css">
	.st0{fill:#FFFFFF;}
</style>
<path class="st0" d="M18.7,16.2"/>
<path class="st0" d="M55.8,16.8L51.6,15l-6-11.1l-3.1,0.2l-2.9-3.5L26.2,19.3c-0.1-3-0.1-6-0.2-8.9c-0.8-2.3-1.6-4.6-2.3-6.9
	c-1.8,0.9-3.7,1.8-5.5,2.7c-3,3.8-5.9,7.6-8.9,11.4c-3.1,4-6.2,8-9.3,12c22,0,44,0,66,0L55.8,16.8z M20.9,7.7
	C19.3,8.8,17.6,9.9,16,11c1.1-1.3,2.2-2.7,3.2-4c1.2-0.6,2.4-1.2,3.6-1.8c0.7,1.5,1.4,3.1,2.1,4.6C23.5,9.1,22.2,8.4,20.9,7.7z
	 M41.9,9.2c-0.7-2.2-1.4-4.4-2.1-6.5c0.8,0.8,1.7,1.7,2.5,2.5c1,0.1,2,0.2,3,0.3c0.8,1.7,1.6,3.3,2.4,5L41.9,9.2z"/>
</svg>
