<?xml version="1.0" encoding="utf-8"?>
<!-- Generator: Adobe Illustrator 26.0.3, SVG Export Plug-In . SVG Version: 6.00 Build 0)  -->
<svg version="1.1" id="Слой_1" xmlns="http://www.w3.org/2000/svg" xmlns:xlink="http://www.w3.org/1999/xlink" x="0px" y="0px"
	 viewBox="0 0 30.9 32" style="enable-background:new 0 0 30.9 32;" xml:space="preserve">
<style type="text/css">
	.st0{fill:#FFFFFF;}
</style>
<path class="st0" d="M30.4,14.8L15.6,0L18,7.4c0,0.4-0.1,0.8-0.2,1.2c-0.4,2.1-1.2,2.5-1,3.7c0,0.4,0.1,0.3,0.6,1.8
	c0.2,0.7,0.4,1.2,0.4,1.6c0.3,0.4,0.7,0.6,1.2,0.7c0.3,0,0.5-0.1,0.8,0s0.2,0.3,0.5,0.5c0.2,0.1,0.4,0.3,0.6,0.4
	c0.3,0.2,0.7,0.4,0.9,0.7c-0.4-0.1-0.8-0.2-1.2-0.2c-0.2,0-0.4,0.1-0.7,0.1c-0.4,0.1-0.8,0.1-1.2,0.1c-0.5,0.5-1.2,0.8-1.9,0.8
	c-0.2,1-0.3,2.1-0.5,3.1c0.2,0.1,0.4,0.3,0.5,0.5c0.1,0.3,0.2,0.7,0.1,1.1c0.1,0.6,0.4,1.2,0.9,1.6c0.5,0.6,0.4,2.2-2.1,6.9
	l14.5-14.5C31.1,16.7,31.1,15.5,30.4,14.8C30.4,14.8,30.4,14.8,30.4,14.8z"/>
<path class="st0" d="M14.5,28.8c0.2-0.9,0.3-1.8,0.3-2.8c0-0.5-0.1-1-0.3-1.5c-0.2-0.5-0.5-0.5-0.7-0.9c-0.6-0.8-0.4-1.5-0.5-2.9
	c-0.1-0.8-0.2-1.7-0.5-2.5c-0.4-0.3-0.8-0.5-1.2-0.5c-0.7-0.1-1.2,0.2-1.7-0.1c-0.1-0.1-0.4-0.2-0.4-0.5s0.2-0.3,0.4-0.4
	c1-0.4,2-0.7,3.1-0.9l0.7-1.4c-0.2-0.4-0.3-0.9-0.3-1.4c0-0.4,0.1-0.8,0.3-1.1c0.5-1.4,0-1.7,0.4-3s1.1-1.2,1.1-2.2
	c0-0.6-0.1-1.1-0.4-1.6c-0.3-0.5-0.4-1.8,0.5-4.9L0.5,14.9c-0.7,0.6-0.7,1.7,0,2.4c0,0,0,0,0,0L15.2,32C14.7,31,14.4,29.9,14.5,28.8
	z"/>
</svg>
