<svg id="Слой_1" data-name="Слой 1" xmlns="http://www.w3.org/2000/svg" viewBox="0 0 66 77.84"><defs><style>.cls-1{fill:#fff;}</style></defs><rect class="cls-1" x="2.21" y="4.17" width="61.59" height="15.84" rx="7.06" transform="translate(1.15 -4.92) rotate(4.87)"/><rect class="cls-1" y="14.34" width="14.94" height="46.96" rx="5.11"/><rect class="cls-1" x="51.4" y="14.34" width="14.6" height="46.96" rx="5.11"/><rect class="cls-1" x="22.57" y="56.12" width="22.33" height="3.8" rx="1.43"/><rect class="cls-1" x="18.06" y="61.7" width="22.33" height="3.8" rx="1.43"/><rect class="cls-1" x="18.06" y="68.07" width="22.33" height="3.8" rx="1.43"/><rect class="cls-1" x="22.57" y="74.04" width="22.33" height="3.8" rx="1.43"/><path class="cls-1" d="M22.66,51.18a21.6,21.6,0,0,1,0-15.84c.41-1,4.29-10.18,10.89-10.15,5.86,0,9.56,7.27,10.65,9.4C48,42,46.37,49.49,45.68,52.05Z" transform="translate(0 -2.16)"/></svg>