<svg id="Слой_1" data-name="Слой 1" xmlns="http://www.w3.org/2000/svg" viewBox="0 0 66 60.41"><defs><style>.cls-1{fill:#fff;}</style></defs><path class="cls-1" d="M28.61,16.17l-13-4.76A32,32,0,0,0,5.27,21.25a32.81,32.81,0,0,0-2.92,30C2.93,52.74,8.69,66.38,24,70.64c13.09,3.65,23.64-2.24,25.72-3.46,1.78-1,13.49-8.19,15.89-22.37,2.13-12.58-3.92-25.69-15.35-33.4A42,42,0,0,0,34,16.92C30.19,19.2,22.45,23.8,19.43,32.81c-.85,2.54-2.35,7-.43,11.89A14.84,14.84,0,0,0,30.88,54a14.84,14.84,0,0,0,13.19-5.51c4.6-5.87,4-15.48-2.16-22.7a11,11,0,0,0-3.24,1.14,10.46,10.46,0,0,0-2.81,2.22A13.41,13.41,0,0,1,40.94,35c.56,1.28,2.58,5.88,0,10.16a9.49,9.49,0,0,1-8.87,4.65c-5-.65-8.36-6.49-8.54-10.59C23.21,31.79,32.8,23.65,48,20.06a23,23,0,0,1,7.24,9.83c3.7,9.83-1.08,18.56-1.83,19.89C49.26,57,41,62.67,31.64,62.21,19.28,61.6,9.42,50.48,8.94,38.75c-.43-10.54,6.88-17.74,8.22-19l5.62,2.38a17.89,17.89,0,0,1,5.83-5.94Z" transform="translate(0 -11.41)"/></svg>