<?xml version="1.0" encoding="utf-8"?>
<!-- Generator: Adobe Illustrator 26.0.1, SVG Export Plug-In . SVG Version: 6.00 Build 0)  -->
<svg version="1.1" id="Слой_1" xmlns="http://www.w3.org/2000/svg" xmlns:xlink="http://www.w3.org/1999/xlink" x="0px" y="0px"
	 viewBox="0 0 66 57" style="enable-background:new 0 0 66 57;" xml:space="preserve">
<style type="text/css">
	.st0{fill:#FFFFFF;}
</style>
<g>
	<path class="st0" d="M66,22.9v-3.5l-3.5-0.1v-4.9c0.6,0.7,1.2,1.2,2,1.6c0.1,0.1,0.3,0.1,0.4,0.1c0.3,0,0.6-0.2,0.8-0.5
		c0.3-0.4,0.1-1-0.3-1.2c-0.7-0.3-1.2-0.8-1.7-1.3c-0.5-0.6-0.9-1.3-1.2-2v-0.9c0.6,0.7,1.2,1.2,2,1.6c0.1,0.1,0.3,0.1,0.4,0.1
		c0.3,0,0.6-0.2,0.8-0.5c0.3-0.4,0.1-1-0.3-1.2c-0.7-0.3-1.2-0.8-1.7-1.3c-0.5-0.6-0.9-1.3-1.2-2V5.7c0.6,0.7,1.2,1.2,2,1.7
		c0.2,0.1,0.3,0.1,0.5,0.1c0.3,0,0.6-0.1,0.7-0.4c0.3-0.5,0.1-1-0.3-1.3c-0.8-0.5-1.5-1.1-2-1.8C63,3.5,62.7,3,62.5,2.5V2.2
		c0-0.4-0.2-0.7-0.6-0.8c0,0-0.1,0-0.1-0.1c0,0,0,0,0,0c0,0,0,0,0,0c-0.2-0.1-0.4-0.1-0.6,0c-0.4,0.1-0.6,0.5-0.6,0.9
		c-0.3,0.6-0.5,1.3-1,1.8c-0.6,0.7-1.2,1.3-2,1.8c-0.4,0.3-0.6,0.9-0.3,1.3c0.2,0.2,0.5,0.4,0.8,0.4c0.2,0,0.3,0,0.4-0.1
		c0.9-0.5,1.6-1.2,2.2-1.9v1.4c-0.3,0.8-0.7,1.4-1.2,2c-0.5,0.5-1.1,0.9-1.7,1.3c-0.4,0.2-0.5,0.8-0.3,1.2c0.2,0.3,0.5,0.5,0.8,0.5
		c0.1,0,0.3-0.1,0.4-0.1c0.8-0.5,1.4-1,2-1.6v0.9c-0.3,0.8-0.7,1.4-1.2,2c-0.5,0.5-1.1,0.9-1.7,1.3c-0.4,0.2-0.5,0.8-0.3,1.2
		c0.2,0.3,0.5,0.5,0.8,0.5c0.1,0,0.3,0,0.4-0.1c0.8-0.5,1.4-1,2-1.6v4.8l-7.2-0.2V16c0.5,0.4,1,0.9,1.6,1.2c0.1,0.1,0.3,0.1,0.4,0.1
		c0.3,0,0.5-0.2,0.7-0.3c0.2-0.4,0.1-0.9-0.3-1.1c-0.5-0.3-1-0.6-1.4-1.1c-0.4-0.4-0.7-1-1-1.5v-0.9c0.5,0.4,1,0.9,1.6,1.2
		c0.1,0.1,0.3,0.1,0.4,0.1c0.3,0,0.5-0.2,0.7-0.3c0.2-0.4,0.1-0.9-0.3-1.1c-0.5-0.3-1-0.6-1.4-1.1c-0.4-0.4-0.7-1-1-1.5V8.4
		c0.5,0.6,1.1,1.1,1.7,1.5c0.1,0.1,0.3,0.1,0.4,0.1c0.3,0,0.5-0.1,0.7-0.4c0.2-0.4,0.1-0.9-0.3-1.1c-0.7-0.5-1.2-1-1.7-1.6
		c-0.4-0.5-0.6-1-0.8-1.6c0-0.1-0.1-0.2-0.1-0.3c0,0,0,0,0,0c0,0,0,0,0,0c-0.1-0.1-0.2-0.3-0.4-0.3c-0.1,0-0.1,0-0.2,0
		c0,0-0.1,0-0.1,0c0,0-0.1,0-0.1,0c-0.1,0-0.1,0-0.2,0c0,0,0,0-0.1,0.1c-0.2,0.1-0.4,0.2-0.4,0.4c-0.2,0.6-0.5,1.2-0.9,1.8
		c-0.5,0.7-1,1.2-1.7,1.6c-0.4,0.3-0.5,0.7-0.3,1.1c0.2,0.3,0.4,0.4,0.7,0.4c0.2,0,0.3,0,0.4-0.1c0.7-0.5,1.3-1,1.8-1.6v1.4
		c-0.3,0.5-0.6,1.1-1,1.5c-0.4,0.4-0.9,0.8-1.4,1.1c-0.4,0.3-0.5,0.7-0.3,1.1c0.2,0.3,0.4,0.4,0.7,0.4c0.1,0,0.2-0.1,0.4-0.2
		c0.6-0.3,1.1-0.7,1.6-1.2v0.9c-0.3,0.5-0.6,1.1-1,1.5c-0.4,0.4-0.9,0.8-1.4,1.1c-0.4,0.3-0.5,0.7-0.3,1.1c0.2,0.3,0.4,0.4,0.7,0.4
		c0.1,0,0.2-0.1,0.4-0.2c0.6-0.3,1.1-0.7,1.6-1.2v2.9l-17.8-0.6l1.2,5.9l-19.7-0.7l0.9,4.8L0.3,27.7l5.4,27.9H0V57h66v-1.4H47.3
		V25.8L66,22.9z M10.1,55.7V33.3l7.1-1.1l4.4,23.5H10.1z M26.4,55.6V29.9l9.7-1.6l5.4,27.3H26.4z"/>
	<path class="st0" d="M12.4,18.6c2.3,0,4.2-1.9,4.2-4.2s-1.9-4.2-4.2-4.2c-2.3,0-4.2,1.9-4.2,4.2S10.1,18.6,12.4,18.6z"/>
</g>
</svg>
