<?xml version="1.0" encoding="utf-8"?>
<!-- Generator: Adobe Illustrator 26.0.1, SVG Export Plug-In . SVG Version: 6.00 Build 0)  -->
<svg version="1.1" id="Слой_1" xmlns="http://www.w3.org/2000/svg" xmlns:xlink="http://www.w3.org/1999/xlink" x="0px" y="0px"
	 viewBox="0 0 66 31.8" style="enable-background:new 0 0 66 31.8;" xml:space="preserve">
<style type="text/css">
	.st0{fill:#FFFFFF;}
</style>
<path class="st0" d="M64.7,21.7c0.1,0.1,0.3,0.1,0.4,0.1c0.3,0,0.5-0.2,0.7-0.3c0.2-0.4,0.1-0.9-0.3-1.1c-0.5-0.3-1-0.6-1.4-1.1
	c-0.4-0.4-0.7-1-1-1.5v-1.3c0.5,0.5,1.1,1.1,1.7,1.5c0.1,0.1,0.3,0.1,0.4,0.1c0.3,0,0.5-0.1,0.6-0.3c0.3-0.4,0.2-0.9-0.2-1.1
	c-0.7-0.5-1.2-1-1.7-1.6c-0.3-0.4-0.6-1-0.8-1.5v-0.1c0-0.4-0.3-0.7-0.6-0.8c0,0,0,0-0.1,0c-0.4-0.1-0.9,0.1-1,0.5
	c-0.2,0.6-0.5,1.3-0.9,1.8c-0.5,0.7-1,1.2-1.7,1.6c-0.3,0.3-0.4,0.7-0.2,1.1c0.2,0.3,0.4,0.4,0.7,0.4c0.2,0,0.3-0.1,0.3-0.2
	c0.7-0.4,1.3-1,1.9-1.7v1.4c-0.3,0.5-0.6,1.1-1,1.5c-0.4,0.4-0.9,0.8-1.4,1.1c-0.4,0.3-0.5,0.7-0.3,1.1c0.2,0.3,0.4,0.4,0.7,0.4
	c0.1,0,0.2,0,0.4-0.2c0.6-0.3,1.1-0.7,1.6-1.2v0.9c-0.3,0.5-0.6,1.1-1,1.5c-0.3,0.3-0.8,0.7-1.2,0.9c-1.3-1.3-1.5-0.9-3.6-2.8
	c-1.8-1.6-2.6-2.7-3.2-3.9c-0.4-0.8-0.6-1.6-0.8-2.1c-0.7-1.2-1.4-2.3-2-3.5c-3-1.5-4.8-3.3-5.9-4.6c-0.6-0.7-1.1-1.4-2.3-2.8
	c-1.4-1.6-2.5-2.9-3.3-3.7c-1.5,1-2.6,1.8-3.3,2.4c-4.5,3.6-6.7,5.4-6.9,5.6C27.9,8.5,27.4,9,26.9,9c-0.4,0-0.5-0.3-1-0.6
	c-0.3-0.2-0.8-0.5-1.5-0.6c-0.8,1.1-2.2,2.8-4,4.7c-1.8,1.8-2.6,2.3-5.5,4.8c-0.8,0.7-1.6,1.3-2.3,1.9c0,0-0.1-0.1-0.1-0.1
	c-0.4-0.4-0.7-0.9-0.9-1.4V17c0.4,0.4,0.8,0.8,1.4,1.1c0.1,0.1,0.2,0.1,0.3,0.1c0.2,0,0.5-0.2,0.6-0.3c0.2-0.3,0.1-0.7-0.2-0.9
	c-0.5-0.2-0.9-0.5-1.2-0.9c-0.4-0.4-0.7-0.9-0.9-1.4v-1c0.4,0.5,0.9,0.9,1.5,1.3c0.1,0.1,0.2,0.1,0.3,0.1c0.2,0,0.5-0.1,0.5-0.3
	c0.2-0.3,0.1-0.7-0.2-0.9c-0.5-0.3-1-0.8-1.4-1.3c-0.3-0.3-0.5-0.8-0.6-1.2l0-0.2c-0.1-0.3-0.3-0.6-0.6-0.6c-0.2,0-0.3,0.1-0.4,0.2
	c0,0-0.1,0-0.1,0.1c-0.1,0.1-0.1,0.1-0.2,0.2c-0.2,0.5-0.5,1-0.8,1.5c-0.4,0.5-0.8,1-1.4,1.3c-0.3,0.2-0.4,0.6-0.2,0.9
	c0.2,0.2,0.4,0.3,0.6,0.3c0.1,0,0.2-0.1,0.2-0.1c0.7-0.4,1.2-0.8,1.7-1.5v1c0,0.1-0.1,0.1-0.1,0.2c-0.2,0.5-0.5,1-0.9,1.4
	c-0.3,0.3-0.8,0.6-1.2,0.9c-0.3,0.2-0.4,0.6-0.2,0.9c0.2,0.2,0.4,0.3,0.6,0.3c0.1,0,0.2-0.1,0.3-0.1c0.6-0.3,1.1-0.7,1.5-1.2v0.6
	c0,0.1-0.1,0.1-0.1,0.2c-0.2,0.5-0.5,1-0.9,1.4c-0.3,0.3-0.8,0.6-1.2,0.9c-0.3,0.2-0.4,0.6-0.2,0.9c0.2,0.2,0.4,0.3,0.6,0.3
	c0.1,0,0.2,0,0.3-0.1c0.6-0.3,1.1-0.7,1.5-1.2v1.2c-1.8,1.6-3.1,2.8-4,3.8c0,0,0,0-0.1-0.1c-0.5-0.3-0.9-0.6-1.3-1
	c-0.3-0.3-0.6-0.8-0.8-1.3v-0.8c0.4,0.4,0.9,0.8,1.5,1.1c0.1,0.1,0.2,0.1,0.3,0.1c0.2,0,0.5-0.1,0.6-0.4c0.2-0.3,0-0.7-0.3-0.9
	c-0.5-0.3-0.9-0.6-1.3-1c-0.3-0.4-0.6-0.9-0.8-1.3v-1c0.4,0.5,1,0.8,1.5,1.2c0.1,0.1,0.3,0.1,0.4,0.1c0.2,0,0.5-0.1,0.6-0.2
	c0.2-0.4,0.1-0.8-0.2-1C5.9,18,5.4,17.6,5,17c-0.3-0.5-0.6-1-0.8-1.6c0-0.3-0.2-0.6-0.5-0.6c-0.4-0.1-0.8,0.1-0.9,0.5
	c-0.2,0.6-0.4,1.1-0.8,1.6c-0.4,0.6-1,1-1.6,1.4c-0.3,0.2-0.4,0.7-0.2,1c0.1,0.2,0.4,0.3,0.6,0.3c0.1,0,0.3-0.1,0.5-0.2
	c0.5-0.3,1.1-0.7,1.5-1.2v0.9c-0.2,0.6-0.5,1.1-0.9,1.5c-0.4,0.4-0.8,0.7-1.3,1c-0.4,0.1-0.5,0.6-0.3,0.9c0.1,0.3,0.4,0.4,0.6,0.4
	c0.2,0,0.3,0,0.4-0.1c0.6-0.4,1-0.8,1.5-1.2v0.7c-0.2,0.6-0.5,1.1-0.9,1.5c-0.4,0.4-0.8,0.7-1.3,1c-0.4,0.1-0.5,0.6-0.3,0.9
	c0.1,0.3,0.4,0.4,0.6,0.4c0.2,0,0.3,0,0.4-0.1c0.6-0.4,1-0.8,1.5-1.2v4.1c0,0,0,0.1,0,0.1c-0.6,0.6-1.1,1.1-0.7,1.9
	c0.4,1,1.3,0.9,2.1,0.9c12,0,24,0,36,0c0,0,7.8-0.1,22.8-0.2c0.4-0.2,1.1-0.6,1.2-1.2c0.1-0.6-0.5-1.1-0.7-1.3
	c-0.2-0.2-0.3-0.3-0.4-0.4c0-0.1,0-0.1,0-0.2v-4.4c0.5,0.4,1,0.9,1.6,1.2c0.1,0.1,0.3,0.1,0.4,0.1c0.3,0,0.5-0.2,0.7-0.3
	c0.2-0.4,0.1-0.9-0.3-1.1c-0.5-0.3-1-0.6-1.4-1.1c-0.4-0.4-0.7-1-1-1.5v-0.9C63.6,21,64.1,21.4,64.7,21.7z M11.6,20
	C11.6,20,11.6,20.1,11.6,20C11.6,20.1,11.6,20.1,11.6,20L11.6,20z M5.4,25.9c-0.5,0.6-0.9,1.1-1.2,1.5v-2.4
	C4.6,25.3,5,25.6,5.4,25.9z M6.8,28.9c4.8-4.7,9.2-9.6,14.5-13.6c1.2-0.9,2.4-2,3.3-3.3c0.5-0.6,0.7-0.6,1.2-0.1
	c1.7,1.8,3.5,3.4,5.2,5.2c1.1,1.2,2.4,1.9,4.1,1.7c1.3-0.2,2,0.4,2.4,1.6c0.5,1.3,1.2,2.5,1.8,3.8c0.8,1.7,1.8,3.3,3.3,4.6
	C30.7,28.9,18.9,28.9,6.8,28.9z M47.7,29.1c-0.1,0-0.4,0-0.7-0.1c-0.4-0.1-0.8-0.4-1.2-0.7c-2.7-2.2-4.2-5.3-5.6-8.4
	c-1.1-2.6-2.7-4-5.6-3.6c-0.5,0.1-0.9-0.1-1.3-0.5c-1.3-1.3-2.6-2.7-3.9-3.9c-0.5-0.5-0.4-0.7,0-1.2c2.5-2.6,5.1-5,7.9-7.2
	c0.6-0.5,0.7,0,0.9,0.3C39.1,5,40.1,6.2,41,7.5c1.9,2.5,3.9,4.7,6.8,6.1c0.1,0,0.4,0.3,0.8,0.7c0.3,0.4,0.4,0.8,0.5,1
	c0.4,1.1,0.5,2.2,0.6,2.6c0.2,1,0.7,1.6,1.5,2.7c1.3,1.8,2.2,1.9,5.4,4.9c0.4,0.4,0.8,0.7,1.1,1.1c1.1,1.1,1.8,2.2,2.3,3
	C53.3,29.2,48.5,29.1,47.7,29.1z M60.5,24.9c0.4-0.2,0.7-0.5,1-0.9v2.3C61.3,26,60.9,25.5,60.5,24.9z"/>
</svg>
